<?xml version="1.0" encoding="utf-8"?>
<svg xmlns="http://www.w3.org/2000/svg"
    xmlns:xlink="http://www.w3.org/1999/xlink"
    width="520" height="520" viewBox="-10 -10 520 520">
<defs>
<style type="text/css"><![CDATA[
line {
    stroke: #000000;
    stroke-linecap: square;
    stroke-width: 5;
}
]]></style>
</defs>
<line x1="0.0" y1="12.5" x2="12.5" y2="12.5"/>
<line x1="12.5" y1="37.5" x2="12.5" y2="50.0"/>
<line x1="0.0" y1="62.5" x2="12.5" y2="62.5"/>
<line x1="12.5" y1="75.0" x2="12.5" y2="87.5"/>
<line x1="12.5" y1="87.5" x2="12.5" y2="100.0"/>
<line x1="0.0" y1="112.5" x2="12.5" y2="112.5"/>
<line x1="12.5" y1="100.0" x2="12.5" y2="112.5"/>
<line x1="12.5" y1="125.0" x2="12.5" y2="137.5"/>
<line x1="0.0" y1="150.0" x2="12.5" y2="150.0"/>
<line x1="12.5" y1="162.5" x2="12.5" y2="175.0"/>
<line x1="12.5" y1="175.0" x2="12.5" y2="187.5"/>
<line x1="12.5" y1="187.5" x2="12.5" y2="200.0"/>
<line x1="0.0" y1="212.5" x2="12.5" y2="212.5"/>
<line x1="12.5" y1="237.5" x2="12.5" y2="250.0"/>
<line x1="0.0" y1="262.5" x2="12.5" y2="262.5"/>
<line x1="0.0" y1="287.5" x2="12.5" y2="287.5"/>
<line x1="12.5" y1="287.5" x2="12.5" y2="300.0"/>
<line x1="12.5" y1="300.0" x2="12.5" y2="312.5"/>
<line x1="0.0" y1="337.5" x2="12.5" y2="337.5"/>
<line x1="0.0" y1="362.5" x2="12.5" y2="362.5"/>
<line x1="12.5" y1="350.0" x2="12.5" y2="362.5"/>
<line x1="12.5" y1="375.0" x2="12.5" y2="387.5"/>
<line x1="12.5" y1="387.5" x2="12.5" y2="400.0"/>
<line x1="12.5" y1="412.5" x2="12.5" y2="425.0"/>
<line x1="12.5" y1="425.0" x2="12.5" y2="437.5"/>
<line x1="12.5" y1="437.5" x2="12.5" y2="450.0"/>
<line x1="12.5" y1="450.0" x2="12.5" y2="462.5"/>
<line x1="0.0" y1="475.0" x2="12.5" y2="475.0"/>
<line x1="12.5" y1="475.0" x2="12.5" y2="487.5"/>
<line x1="0.0" y1="500.0" x2="12.5" y2="500.0"/>
<line x1="12.5" y1="12.5" x2="25.0" y2="12.5"/>
<line x1="12.5" y1="25.0" x2="25.0" y2="25.0"/>
<line x1="12.5" y1="37.5" x2="25.0" y2="37.5"/>
<line x1="25.0" y1="37.5" x2="25.0" y2="50.0"/>
<line x1="25.0" y1="50.0" x2="25.0" y2="62.5"/>
<line x1="12.5" y1="75.0" x2="25.0" y2="75.0"/>
<line x1="25.0" y1="62.5" x2="25.0" y2="75.0"/>
<line x1="12.5" y1="100.0" x2="25.0" y2="100.0"/>
<line x1="25.0" y1="112.5" x2="25.0" y2="125.0"/>
<line x1="12.5" y1="137.5" x2="25.0" y2="137.5"/>
<line x1="25.0" y1="125.0" x2="25.0" y2="137.5"/>
<line x1="12.5" y1="150.0" x2="25.0" y2="150.0"/>
<line x1="25.0" y1="162.5" x2="25.0" y2="175.0"/>
<line x1="25.0" y1="175.0" x2="25.0" y2="187.5"/>
<line x1="12.5" y1="200.0" x2="25.0" y2="200.0"/>
<line x1="25.0" y1="187.5" x2="25.0" y2="200.0"/>
<line x1="12.5" y1="212.5" x2="25.0" y2="212.5"/>
<line x1="12.5" y1="225.0" x2="25.0" y2="225.0"/>
<line x1="12.5" y1="237.5" x2="25.0" y2="237.5"/>
<line x1="12.5" y1="250.0" x2="25.0" y2="250.0"/>
<line x1="25.0" y1="250.0" x2="25.0" y2="262.5"/>
<line x1="12.5" y1="275.0" x2="25.0" y2="275.0"/>
<line x1="25.0" y1="262.5" x2="25.0" y2="275.0"/>
<line x1="25.0" y1="275.0" x2="25.0" y2="287.5"/>
<line x1="25.0" y1="287.5" x2="25.0" y2="300.0"/>
<line x1="25.0" y1="300.0" x2="25.0" y2="312.5"/>
<line x1="12.5" y1="325.0" x2="25.0" y2="325.0"/>
<line x1="25.0" y1="312.5" x2="25.0" y2="325.0"/>
<line x1="12.5" y1="337.5" x2="25.0" y2="337.5"/>
<line x1="25.0" y1="337.5" x2="25.0" y2="350.0"/>
<line x1="12.5" y1="362.5" x2="25.0" y2="362.5"/>
<line x1="25.0" y1="362.5" x2="25.0" y2="375.0"/>
<line x1="12.5" y1="387.5" x2="25.0" y2="387.5"/>
<line x1="12.5" y1="400.0" x2="25.0" y2="400.0"/>
<line x1="12.5" y1="412.5" x2="25.0" y2="412.5"/>
<line x1="25.0" y1="425.0" x2="25.0" y2="437.5"/>
<line x1="12.5" y1="450.0" x2="25.0" y2="450.0"/>
<line x1="25.0" y1="450.0" x2="25.0" y2="462.5"/>
<line x1="25.0" y1="462.5" x2="25.0" y2="475.0"/>
<line x1="25.0" y1="475.0" x2="25.0" y2="487.5"/>
<line x1="12.5" y1="500.0" x2="25.0" y2="500.0"/>
<line x1="25.0" y1="12.5" x2="37.5" y2="12.5"/>
<line x1="25.0" y1="25.0" x2="37.5" y2="25.0"/>
<line x1="37.5" y1="12.5" x2="37.5" y2="25.0"/>
<line x1="37.5" y1="25.0" x2="37.5" y2="37.5"/>
<line x1="25.0" y1="50.0" x2="37.5" y2="50.0"/>
<line x1="37.5" y1="62.5" x2="37.5" y2="75.0"/>
<line x1="25.0" y1="87.5" x2="37.5" y2="87.5"/>
<line x1="37.5" y1="75.0" x2="37.5" y2="87.5"/>
<line x1="37.5" y1="87.5" x2="37.5" y2="100.0"/>
<line x1="25.0" y1="112.5" x2="37.5" y2="112.5"/>
<line x1="37.5" y1="100.0" x2="37.5" y2="112.5"/>
<line x1="25.0" y1="137.5" x2="37.5" y2="137.5"/>
<line x1="37.5" y1="137.5" x2="37.5" y2="150.0"/>
<line x1="25.0" y1="162.5" x2="37.5" y2="162.5"/>
<line x1="37.5" y1="150.0" x2="37.5" y2="162.5"/>
<line x1="25.0" y1="187.5" x2="37.5" y2="187.5"/>
<line x1="25.0" y1="212.5" x2="37.5" y2="212.5"/>
<line x1="37.5" y1="200.0" x2="37.5" y2="212.5"/>
<line x1="25.0" y1="225.0" x2="37.5" y2="225.0"/>
<line x1="25.0" y1="237.5" x2="37.5" y2="237.5"/>
<line x1="25.0" y1="250.0" x2="37.5" y2="250.0"/>
<line x1="37.5" y1="262.5" x2="37.5" y2="275.0"/>
<line x1="37.5" y1="275.0" x2="37.5" y2="287.5"/>
<line x1="25.0" y1="300.0" x2="37.5" y2="300.0"/>
<line x1="37.5" y1="312.5" x2="37.5" y2="325.0"/>
<line x1="25.0" y1="337.5" x2="37.5" y2="337.5"/>
<line x1="37.5" y1="325.0" x2="37.5" y2="337.5"/>
<line x1="37.5" y1="350.0" x2="37.5" y2="362.5"/>
<line x1="25.0" y1="375.0" x2="37.5" y2="375.0"/>
<line x1="37.5" y1="362.5" x2="37.5" y2="375.0"/>
<line x1="37.5" y1="375.0" x2="37.5" y2="387.5"/>
<line x1="25.0" y1="400.0" x2="37.5" y2="400.0"/>
<line x1="37.5" y1="400.0" x2="37.5" y2="412.5"/>
<line x1="25.0" y1="425.0" x2="37.5" y2="425.0"/>
<line x1="37.5" y1="412.5" x2="37.5" y2="425.0"/>
<line x1="25.0" y1="437.5" x2="37.5" y2="437.5"/>
<line x1="37.5" y1="437.5" x2="37.5" y2="450.0"/>
<line x1="25.0" y1="462.5" x2="37.5" y2="462.5"/>
<line x1="37.5" y1="462.5" x2="37.5" y2="475.0"/>
<line x1="37.5" y1="475.0" x2="37.5" y2="487.5"/>
<line x1="25.0" y1="500.0" x2="37.5" y2="500.0"/>
<line x1="37.5" y1="12.5" x2="50.0" y2="12.5"/>
<line x1="37.5" y1="37.5" x2="50.0" y2="37.5"/>
<line x1="50.0" y1="50.0" x2="50.0" y2="62.5"/>
<line x1="50.0" y1="62.5" x2="50.0" y2="75.0"/>
<line x1="37.5" y1="87.5" x2="50.0" y2="87.5"/>
<line x1="50.0" y1="75.0" x2="50.0" y2="87.5"/>
<line x1="50.0" y1="100.0" x2="50.0" y2="112.5"/>
<line x1="37.5" y1="125.0" x2="50.0" y2="125.0"/>
<line x1="50.0" y1="112.5" x2="50.0" y2="125.0"/>
<line x1="50.0" y1="125.0" x2="50.0" y2="137.5"/>
<line x1="50.0" y1="137.5" x2="50.0" y2="150.0"/>
<line x1="37.5" y1="162.5" x2="50.0" y2="162.5"/>
<line x1="37.5" y1="175.0" x2="50.0" y2="175.0"/>
<line x1="37.5" y1="187.5" x2="50.0" y2="187.5"/>
<line x1="37.5" y1="200.0" x2="50.0" y2="200.0"/>
<line x1="37.5" y1="225.0" x2="50.0" y2="225.0"/>
<line x1="50.0" y1="212.5" x2="50.0" y2="225.0"/>
<line x1="37.5" y1="237.5" x2="50.0" y2="237.5"/>
<line x1="50.0" y1="250.0" x2="50.0" y2="262.5"/>
<line x1="50.0" y1="262.5" x2="50.0" y2="275.0"/>
<line x1="37.5" y1="287.5" x2="50.0" y2="287.5"/>
<line x1="50.0" y1="287.5" x2="50.0" y2="300.0"/>
<line x1="50.0" y1="300.0" x2="50.0" y2="312.5"/>
<line x1="37.5" y1="325.0" x2="50.0" y2="325.0"/>
<line x1="37.5" y1="350.0" x2="50.0" y2="350.0"/>
<line x1="37.5" y1="375.0" x2="50.0" y2="375.0"/>
<line x1="37.5" y1="400.0" x2="50.0" y2="400.0"/>
<line x1="50.0" y1="387.5" x2="50.0" y2="400.0"/>
<line x1="50.0" y1="412.5" x2="50.0" y2="425.0"/>
<line x1="37.5" y1="450.0" x2="50.0" y2="450.0"/>
<line x1="50.0" y1="437.5" x2="50.0" y2="450.0"/>
<line x1="50.0" y1="450.0" x2="50.0" y2="462.5"/>
<line x1="50.0" y1="462.5" x2="50.0" y2="475.0"/>
<line x1="37.5" y1="487.5" x2="50.0" y2="487.5"/>
<line x1="37.5" y1="500.0" x2="50.0" y2="500.0"/>
<line x1="50.0" y1="12.5" x2="62.5" y2="12.5"/>
<line x1="50.0" y1="25.0" x2="62.5" y2="25.0"/>
<line x1="50.0" y1="37.5" x2="62.5" y2="37.5"/>
<line x1="50.0" y1="50.0" x2="62.5" y2="50.0"/>
<line x1="62.5" y1="37.5" x2="62.5" y2="50.0"/>
<line x1="62.5" y1="62.5" x2="62.5" y2="75.0"/>
<line x1="62.5" y1="75.0" x2="62.5" y2="87.5"/>
<line x1="50.0" y1="100.0" x2="62.5" y2="100.0"/>
<line x1="62.5" y1="87.5" x2="62.5" y2="100.0"/>
<line x1="62.5" y1="112.5" x2="62.5" y2="125.0"/>
<line x1="62.5" y1="125.0" x2="62.5" y2="137.5"/>
<line x1="50.0" y1="150.0" x2="62.5" y2="150.0"/>
<line x1="62.5" y1="150.0" x2="62.5" y2="162.5"/>
<line x1="50.0" y1="175.0" x2="62.5" y2="175.0"/>
<line x1="62.5" y1="162.5" x2="62.5" y2="175.0"/>
<line x1="50.0" y1="187.5" x2="62.5" y2="187.5"/>
<line x1="50.0" y1="200.0" x2="62.5" y2="200.0"/>
<line x1="50.0" y1="212.5" x2="62.5" y2="212.5"/>
<line x1="50.0" y1="225.0" x2="62.5" y2="225.0"/>
<line x1="50.0" y1="237.5" x2="62.5" y2="237.5"/>
<line x1="50.0" y1="250.0" x2="62.5" y2="250.0"/>
<line x1="62.5" y1="237.5" x2="62.5" y2="250.0"/>
<line x1="50.0" y1="275.0" x2="62.5" y2="275.0"/>
<line x1="50.0" y1="287.5" x2="62.5" y2="287.5"/>
<line x1="62.5" y1="275.0" x2="62.5" y2="287.5"/>
<line x1="50.0" y1="312.5" x2="62.5" y2="312.5"/>
<line x1="62.5" y1="312.5" x2="62.5" y2="325.0"/>
<line x1="50.0" y1="337.5" x2="62.5" y2="337.5"/>
<line x1="62.5" y1="325.0" x2="62.5" y2="337.5"/>
<line x1="50.0" y1="350.0" x2="62.5" y2="350.0"/>
<line x1="50.0" y1="362.5" x2="62.5" y2="362.5"/>
<line x1="62.5" y1="362.5" x2="62.5" y2="375.0"/>
<line x1="50.0" y1="387.5" x2="62.5" y2="387.5"/>
<line x1="62.5" y1="375.0" x2="62.5" y2="387.5"/>
<line x1="50.0" y1="400.0" x2="62.5" y2="400.0"/>
<line x1="50.0" y1="412.5" x2="62.5" y2="412.5"/>
<line x1="50.0" y1="425.0" x2="62.5" y2="425.0"/>
<line x1="50.0" y1="437.5" x2="62.5" y2="437.5"/>
<line x1="50.0" y1="475.0" x2="62.5" y2="475.0"/>
<line x1="50.0" y1="487.5" x2="62.5" y2="487.5"/>
<line x1="50.0" y1="500.0" x2="62.5" y2="500.0"/>
<line x1="75.0" y1="0.0" x2="75.0" y2="12.5"/>
<line x1="62.5" y1="25.0" x2="75.0" y2="25.0"/>
<line x1="75.0" y1="12.5" x2="75.0" y2="25.0"/>
<line x1="75.0" y1="25.0" x2="75.0" y2="37.5"/>
<line x1="75.0" y1="37.5" x2="75.0" y2="50.0"/>
<line x1="62.5" y1="62.5" x2="75.0" y2="62.5"/>
<line x1="75.0" y1="50.0" x2="75.0" y2="62.5"/>
<line x1="62.5" y1="75.0" x2="75.0" y2="75.0"/>
<line x1="75.0" y1="87.5" x2="75.0" y2="100.0"/>
<line x1="62.5" y1="112.5" x2="75.0" y2="112.5"/>
<line x1="75.0" y1="100.0" x2="75.0" y2="112.5"/>
<line x1="75.0" y1="137.5" x2="75.0" y2="150.0"/>
<line x1="62.5" y1="162.5" x2="75.0" y2="162.5"/>
<line x1="75.0" y1="150.0" x2="75.0" y2="162.5"/>
<line x1="62.5" y1="187.5" x2="75.0" y2="187.5"/>
<line x1="75.0" y1="175.0" x2="75.0" y2="187.5"/>
<line x1="62.5" y1="200.0" x2="75.0" y2="200.0"/>
<line x1="62.5" y1="212.5" x2="75.0" y2="212.5"/>
<line x1="62.5" y1="225.0" x2="75.0" y2="225.0"/>
<line x1="75.0" y1="225.0" x2="75.0" y2="237.5"/>
<line x1="75.0" y1="237.5" x2="75.0" y2="250.0"/>
<line x1="62.5" y1="262.5" x2="75.0" y2="262.5"/>
<line x1="75.0" y1="250.0" x2="75.0" y2="262.5"/>
<line x1="75.0" y1="262.5" x2="75.0" y2="275.0"/>
<line x1="62.5" y1="287.5" x2="75.0" y2="287.5"/>
<line x1="62.5" y1="300.0" x2="75.0" y2="300.0"/>
<line x1="75.0" y1="300.0" x2="75.0" y2="312.5"/>
<line x1="75.0" y1="312.5" x2="75.0" y2="325.0"/>
<line x1="62.5" y1="337.5" x2="75.0" y2="337.5"/>
<line x1="62.5" y1="350.0" x2="75.0" y2="350.0"/>
<line x1="75.0" y1="337.5" x2="75.0" y2="350.0"/>
<line x1="75.0" y1="350.0" x2="75.0" y2="362.5"/>
<line x1="62.5" y1="375.0" x2="75.0" y2="375.0"/>
<line x1="62.5" y1="400.0" x2="75.0" y2="400.0"/>
<line x1="75.0" y1="387.5" x2="75.0" y2="400.0"/>
<line x1="62.5" y1="412.5" x2="75.0" y2="412.5"/>
<line x1="62.5" y1="425.0" x2="75.0" y2="425.0"/>
<line x1="75.0" y1="425.0" x2="75.0" y2="437.5"/>
<line x1="62.5" y1="450.0" x2="75.0" y2="450.0"/>
<line x1="75.0" y1="437.5" x2="75.0" y2="450.0"/>
<line x1="62.5" y1="462.5" x2="75.0" y2="462.5"/>
<line x1="62.5" y1="475.0" x2="75.0" y2="475.0"/>
<line x1="62.5" y1="487.5" x2="75.0" y2="487.5"/>
<line x1="62.5" y1="500.0" x2="75.0" y2="500.0"/>
<line x1="87.5" y1="12.5" x2="87.5" y2="25.0"/>
<line x1="87.5" y1="25.0" x2="87.5" y2="37.5"/>
<line x1="75.0" y1="50.0" x2="87.5" y2="50.0"/>
<line x1="87.5" y1="62.5" x2="87.5" y2="75.0"/>
<line x1="87.5" y1="75.0" x2="87.5" y2="87.5"/>
<line x1="87.5" y1="87.5" x2="87.5" y2="100.0"/>
<line x1="75.0" y1="112.5" x2="87.5" y2="112.5"/>
<line x1="87.5" y1="100.0" x2="87.5" y2="112.5"/>
<line x1="75.0" y1="125.0" x2="87.5" y2="125.0"/>
<line x1="75.0" y1="137.5" x2="87.5" y2="137.5"/>
<line x1="87.5" y1="150.0" x2="87.5" y2="162.5"/>
<line x1="75.0" y1="175.0" x2="87.5" y2="175.0"/>
<line x1="87.5" y1="162.5" x2="87.5" y2="175.0"/>
<line x1="75.0" y1="200.0" x2="87.5" y2="200.0"/>
<line x1="87.5" y1="187.5" x2="87.5" y2="200.0"/>
<line x1="87.5" y1="200.0" x2="87.5" y2="212.5"/>
<line x1="75.0" y1="225.0" x2="87.5" y2="225.0"/>
<line x1="87.5" y1="237.5" x2="87.5" y2="250.0"/>
<line x1="75.0" y1="262.5" x2="87.5" y2="262.5"/>
<line x1="87.5" y1="250.0" x2="87.5" y2="262.5"/>
<line x1="75.0" y1="287.5" x2="87.5" y2="287.5"/>
<line x1="87.5" y1="275.0" x2="87.5" y2="287.5"/>
<line x1="75.0" y1="300.0" x2="87.5" y2="300.0"/>
<line x1="75.0" y1="325.0" x2="87.5" y2="325.0"/>
<line x1="87.5" y1="325.0" x2="87.5" y2="337.5"/>
<line x1="75.0" y1="362.5" x2="87.5" y2="362.5"/>
<line x1="87.5" y1="350.0" x2="87.5" y2="362.5"/>
<line x1="75.0" y1="375.0" x2="87.5" y2="375.0"/>
<line x1="87.5" y1="387.5" x2="87.5" y2="400.0"/>
<line x1="87.5" y1="400.0" x2="87.5" y2="412.5"/>
<line x1="87.5" y1="412.5" x2="87.5" y2="425.0"/>
<line x1="75.0" y1="437.5" x2="87.5" y2="437.5"/>
<line x1="75.0" y1="450.0" x2="87.5" y2="450.0"/>
<line x1="75.0" y1="462.5" x2="87.5" y2="462.5"/>
<line x1="75.0" y1="475.0" x2="87.5" y2="475.0"/>
<line x1="87.5" y1="462.5" x2="87.5" y2="475.0"/>
<line x1="75.0" y1="487.5" x2="87.5" y2="487.5"/>
<line x1="75.0" y1="500.0" x2="87.5" y2="500.0"/>
<line x1="87.5" y1="487.5" x2="87.5" y2="500.0"/>
<line x1="87.5" y1="12.5" x2="100.0" y2="12.5"/>
<line x1="87.5" y1="37.5" x2="100.0" y2="37.5"/>
<line x1="100.0" y1="37.5" x2="100.0" y2="50.0"/>
<line x1="87.5" y1="62.5" x2="100.0" y2="62.5"/>
<line x1="100.0" y1="50.0" x2="100.0" y2="62.5"/>
<line x1="100.0" y1="75.0" x2="100.0" y2="87.5"/>
<line x1="100.0" y1="87.5" x2="100.0" y2="100.0"/>
<line x1="100.0" y1="100.0" x2="100.0" y2="112.5"/>
<line x1="87.5" y1="125.0" x2="100.0" y2="125.0"/>
<line x1="100.0" y1="112.5" x2="100.0" y2="125.0"/>
<line x1="87.5" y1="137.5" x2="100.0" y2="137.5"/>
<line x1="100.0" y1="125.0" x2="100.0" y2="137.5"/>
<line x1="87.5" y1="150.0" x2="100.0" y2="150.0"/>
<line x1="87.5" y1="162.5" x2="100.0" y2="162.5"/>
<line x1="87.5" y1="187.5" x2="100.0" y2="187.5"/>
<line x1="100.0" y1="200.0" x2="100.0" y2="212.5"/>
<line x1="87.5" y1="225.0" x2="100.0" y2="225.0"/>
<line x1="100.0" y1="212.5" x2="100.0" y2="225.0"/>
<line x1="100.0" y1="237.5" x2="100.0" y2="250.0"/>
<line x1="87.5" y1="262.5" x2="100.0" y2="262.5"/>
<line x1="100.0" y1="262.5" x2="100.0" y2="275.0"/>
<line x1="100.0" y1="275.0" x2="100.0" y2="287.5"/>
<line x1="87.5" y1="300.0" x2="100.0" y2="300.0"/>
<line x1="100.0" y1="287.5" x2="100.0" y2="300.0"/>
<line x1="87.5" y1="312.5" x2="100.0" y2="312.5"/>
<line x1="100.0" y1="312.5" x2="100.0" y2="325.0"/>
<line x1="87.5" y1="337.5" x2="100.0" y2="337.5"/>
<line x1="87.5" y1="350.0" x2="100.0" y2="350.0"/>
<line x1="87.5" y1="375.0" x2="100.0" y2="375.0"/>
<line x1="100.0" y1="362.5" x2="100.0" y2="375.0"/>
<line x1="100.0" y1="375.0" x2="100.0" y2="387.5"/>
<line x1="87.5" y1="400.0" x2="100.0" y2="400.0"/>
<line x1="87.5" y1="425.0" x2="100.0" y2="425.0"/>
<line x1="100.0" y1="425.0" x2="100.0" y2="437.5"/>
<line x1="87.5" y1="450.0" x2="100.0" y2="450.0"/>
<line x1="100.0" y1="450.0" x2="100.0" y2="462.5"/>
<line x1="87.5" y1="475.0" x2="100.0" y2="475.0"/>
<line x1="100.0" y1="475.0" x2="100.0" y2="487.5"/>
<line x1="87.5" y1="500.0" x2="100.0" y2="500.0"/>
<line x1="100.0" y1="12.5" x2="112.5" y2="12.5"/>
<line x1="100.0" y1="25.0" x2="112.5" y2="25.0"/>
<line x1="112.5" y1="12.5" x2="112.5" y2="25.0"/>
<line x1="100.0" y1="62.5" x2="112.5" y2="62.5"/>
<line x1="112.5" y1="50.0" x2="112.5" y2="62.5"/>
<line x1="100.0" y1="75.0" x2="112.5" y2="75.0"/>
<line x1="112.5" y1="87.5" x2="112.5" y2="100.0"/>
<line x1="100.0" y1="112.5" x2="112.5" y2="112.5"/>
<line x1="100.0" y1="137.5" x2="112.5" y2="137.5"/>
<line x1="100.0" y1="150.0" x2="112.5" y2="150.0"/>
<line x1="112.5" y1="150.0" x2="112.5" y2="162.5"/>
<line x1="100.0" y1="175.0" x2="112.5" y2="175.0"/>
<line x1="112.5" y1="162.5" x2="112.5" y2="175.0"/>
<line x1="100.0" y1="187.5" x2="112.5" y2="187.5"/>
<line x1="112.5" y1="187.5" x2="112.5" y2="200.0"/>
<line x1="100.0" y1="212.5" x2="112.5" y2="212.5"/>
<line x1="112.5" y1="212.5" x2="112.5" y2="225.0"/>
<line x1="100.0" y1="237.5" x2="112.5" y2="237.5"/>
<line x1="112.5" y1="225.0" x2="112.5" y2="237.5"/>
<line x1="112.5" y1="250.0" x2="112.5" y2="262.5"/>
<line x1="100.0" y1="287.5" x2="112.5" y2="287.5"/>
<line x1="112.5" y1="275.0" x2="112.5" y2="287.5"/>
<line x1="100.0" y1="312.5" x2="112.5" y2="312.5"/>
<line x1="112.5" y1="300.0" x2="112.5" y2="312.5"/>
<line x1="100.0" y1="337.5" x2="112.5" y2="337.5"/>
<line x1="112.5" y1="325.0" x2="112.5" y2="337.5"/>
<line x1="100.0" y1="350.0" x2="112.5" y2="350.0"/>
<line x1="100.0" y1="362.5" x2="112.5" y2="362.5"/>
<line x1="100.0" y1="387.5" x2="112.5" y2="387.5"/>
<line x1="100.0" y1="400.0" x2="112.5" y2="400.0"/>
<line x1="112.5" y1="387.5" x2="112.5" y2="400.0"/>
<line x1="100.0" y1="412.5" x2="112.5" y2="412.5"/>
<line x1="112.5" y1="412.5" x2="112.5" y2="425.0"/>
<line x1="100.0" y1="437.5" x2="112.5" y2="437.5"/>
<line x1="112.5" y1="437.5" x2="112.5" y2="450.0"/>
<line x1="100.0" y1="462.5" x2="112.5" y2="462.5"/>
<line x1="112.5" y1="450.0" x2="112.5" y2="462.5"/>
<line x1="100.0" y1="475.0" x2="112.5" y2="475.0"/>
<line x1="100.0" y1="500.0" x2="112.5" y2="500.0"/>
<line x1="112.5" y1="487.5" x2="112.5" y2="500.0"/>
<line x1="125.0" y1="0.0" x2="125.0" y2="12.5"/>
<line x1="112.5" y1="25.0" x2="125.0" y2="25.0"/>
<line x1="112.5" y1="37.5" x2="125.0" y2="37.5"/>
<line x1="125.0" y1="25.0" x2="125.0" y2="37.5"/>
<line x1="112.5" y1="50.0" x2="125.0" y2="50.0"/>
<line x1="112.5" y1="75.0" x2="125.0" y2="75.0"/>
<line x1="125.0" y1="62.5" x2="125.0" y2="75.0"/>
<line x1="125.0" y1="75.0" x2="125.0" y2="87.5"/>
<line x1="112.5" y1="100.0" x2="125.0" y2="100.0"/>
<line x1="125.0" y1="100.0" x2="125.0" y2="112.5"/>
<line x1="112.5" y1="125.0" x2="125.0" y2="125.0"/>
<line x1="125.0" y1="112.5" x2="125.0" y2="125.0"/>
<line x1="125.0" y1="125.0" x2="125.0" y2="137.5"/>
<line x1="112.5" y1="150.0" x2="125.0" y2="150.0"/>
<line x1="125.0" y1="137.5" x2="125.0" y2="150.0"/>
<line x1="112.5" y1="175.0" x2="125.0" y2="175.0"/>
<line x1="125.0" y1="175.0" x2="125.0" y2="187.5"/>
<line x1="125.0" y1="187.5" x2="125.0" y2="200.0"/>
<line x1="125.0" y1="200.0" x2="125.0" y2="212.5"/>
<line x1="125.0" y1="212.5" x2="125.0" y2="225.0"/>
<line x1="125.0" y1="225.0" x2="125.0" y2="237.5"/>
<line x1="112.5" y1="250.0" x2="125.0" y2="250.0"/>
<line x1="125.0" y1="237.5" x2="125.0" y2="250.0"/>
<line x1="112.5" y1="275.0" x2="125.0" y2="275.0"/>
<line x1="125.0" y1="262.5" x2="125.0" y2="275.0"/>
<line x1="112.5" y1="300.0" x2="125.0" y2="300.0"/>
<line x1="125.0" y1="287.5" x2="125.0" y2="300.0"/>
<line x1="112.5" y1="312.5" x2="125.0" y2="312.5"/>
<line x1="112.5" y1="325.0" x2="125.0" y2="325.0"/>
<line x1="112.5" y1="337.5" x2="125.0" y2="337.5"/>
<line x1="112.5" y1="362.5" x2="125.0" y2="362.5"/>
<line x1="125.0" y1="350.0" x2="125.0" y2="362.5"/>
<line x1="112.5" y1="375.0" x2="125.0" y2="375.0"/>
<line x1="125.0" y1="375.0" x2="125.0" y2="387.5"/>
<line x1="112.5" y1="400.0" x2="125.0" y2="400.0"/>
<line x1="125.0" y1="400.0" x2="125.0" y2="412.5"/>
<line x1="112.5" y1="425.0" x2="125.0" y2="425.0"/>
<line x1="125.0" y1="425.0" x2="125.0" y2="437.5"/>
<line x1="125.0" y1="450.0" x2="125.0" y2="462.5"/>
<line x1="112.5" y1="475.0" x2="125.0" y2="475.0"/>
<line x1="125.0" y1="462.5" x2="125.0" y2="475.0"/>
<line x1="125.0" y1="475.0" x2="125.0" y2="487.5"/>
<line x1="112.5" y1="500.0" x2="125.0" y2="500.0"/>
<line x1="125.0" y1="12.5" x2="137.5" y2="12.5"/>
<line x1="137.5" y1="12.5" x2="137.5" y2="25.0"/>
<line x1="125.0" y1="37.5" x2="137.5" y2="37.5"/>
<line x1="125.0" y1="50.0" x2="137.5" y2="50.0"/>
<line x1="137.5" y1="50.0" x2="137.5" y2="62.5"/>
<line x1="125.0" y1="87.5" x2="137.5" y2="87.5"/>
<line x1="137.5" y1="75.0" x2="137.5" y2="87.5"/>
<line x1="137.5" y1="87.5" x2="137.5" y2="100.0"/>
<line x1="137.5" y1="100.0" x2="137.5" y2="112.5"/>
<line x1="137.5" y1="112.5" x2="137.5" y2="125.0"/>
<line x1="125.0" y1="137.5" x2="137.5" y2="137.5"/>
<line x1="137.5" y1="137.5" x2="137.5" y2="150.0"/>
<line x1="125.0" y1="162.5" x2="137.5" y2="162.5"/>
<line x1="137.5" y1="162.5" x2="137.5" y2="175.0"/>
<line x1="125.0" y1="187.5" x2="137.5" y2="187.5"/>
<line x1="137.5" y1="200.0" x2="137.5" y2="212.5"/>
<line x1="125.0" y1="225.0" x2="137.5" y2="225.0"/>
<line x1="137.5" y1="225.0" x2="137.5" y2="237.5"/>
<line x1="137.5" y1="237.5" x2="137.5" y2="250.0"/>
<line x1="125.0" y1="262.5" x2="137.5" y2="262.5"/>
<line x1="137.5" y1="250.0" x2="137.5" y2="262.5"/>
<line x1="125.0" y1="287.5" x2="137.5" y2="287.5"/>
<line x1="137.5" y1="275.0" x2="137.5" y2="287.5"/>
<line x1="137.5" y1="287.5" x2="137.5" y2="300.0"/>
<line x1="125.0" y1="325.0" x2="137.5" y2="325.0"/>
<line x1="137.5" y1="312.5" x2="137.5" y2="325.0"/>
<line x1="125.0" y1="350.0" x2="137.5" y2="350.0"/>
<line x1="137.5" y1="337.5" x2="137.5" y2="350.0"/>
<line x1="137.5" y1="350.0" x2="137.5" y2="362.5"/>
<line x1="137.5" y1="362.5" x2="137.5" y2="375.0"/>
<line x1="125.0" y1="387.5" x2="137.5" y2="387.5"/>
<line x1="137.5" y1="387.5" x2="137.5" y2="400.0"/>
<line x1="137.5" y1="400.0" x2="137.5" y2="412.5"/>
<line x1="125.0" y1="425.0" x2="137.5" y2="425.0"/>
<line x1="137.5" y1="425.0" x2="137.5" y2="437.5"/>
<line x1="125.0" y1="450.0" x2="137.5" y2="450.0"/>
<line x1="137.5" y1="437.5" x2="137.5" y2="450.0"/>
<line x1="137.5" y1="462.5" x2="137.5" y2="475.0"/>
<line x1="125.0" y1="487.5" x2="137.5" y2="487.5"/>
<line x1="125.0" y1="500.0" x2="137.5" y2="500.0"/>
<line x1="150.0" y1="12.5" x2="150.0" y2="25.0"/>
<line x1="137.5" y1="37.5" x2="150.0" y2="37.5"/>
<line x1="150.0" y1="25.0" x2="150.0" y2="37.5"/>
<line x1="150.0" y1="37.5" x2="150.0" y2="50.0"/>
<line x1="137.5" y1="62.5" x2="150.0" y2="62.5"/>
<line x1="150.0" y1="62.5" x2="150.0" y2="75.0"/>
<line x1="150.0" y1="75.0" x2="150.0" y2="87.5"/>
<line x1="150.0" y1="87.5" x2="150.0" y2="100.0"/>
<line x1="137.5" y1="125.0" x2="150.0" y2="125.0"/>
<line x1="150.0" y1="112.5" x2="150.0" y2="125.0"/>
<line x1="150.0" y1="125.0" x2="150.0" y2="137.5"/>
<line x1="137.5" y1="150.0" x2="150.0" y2="150.0"/>
<line x1="137.5" y1="162.5" x2="150.0" y2="162.5"/>
<line x1="137.5" y1="175.0" x2="150.0" y2="175.0"/>
<line x1="137.5" y1="187.5" x2="150.0" y2="187.5"/>
<line x1="137.5" y1="212.5" x2="150.0" y2="212.5"/>
<line x1="150.0" y1="212.5" x2="150.0" y2="225.0"/>
<line x1="137.5" y1="237.5" x2="150.0" y2="237.5"/>
<line x1="137.5" y1="262.5" x2="150.0" y2="262.5"/>
<line x1="137.5" y1="275.0" x2="150.0" y2="275.0"/>
<line x1="137.5" y1="300.0" x2="150.0" y2="300.0"/>
<line x1="150.0" y1="300.0" x2="150.0" y2="312.5"/>
<line x1="137.5" y1="325.0" x2="150.0" y2="325.0"/>
<line x1="150.0" y1="325.0" x2="150.0" y2="337.5"/>
<line x1="150.0" y1="337.5" x2="150.0" y2="350.0"/>
<line x1="137.5" y1="362.5" x2="150.0" y2="362.5"/>
<line x1="137.5" y1="387.5" x2="150.0" y2="387.5"/>
<line x1="150.0" y1="375.0" x2="150.0" y2="387.5"/>
<line x1="137.5" y1="412.5" x2="150.0" y2="412.5"/>
<line x1="137.5" y1="425.0" x2="150.0" y2="425.0"/>
<line x1="150.0" y1="437.5" x2="150.0" y2="450.0"/>
<line x1="137.5" y1="462.5" x2="150.0" y2="462.5"/>
<line x1="150.0" y1="450.0" x2="150.0" y2="462.5"/>
<line x1="137.5" y1="475.0" x2="150.0" y2="475.0"/>
<line x1="137.5" y1="487.5" x2="150.0" y2="487.5"/>
<line x1="137.5" y1="500.0" x2="150.0" y2="500.0"/>
<line x1="150.0" y1="12.5" x2="162.5" y2="12.5"/>
<line x1="162.5" y1="25.0" x2="162.5" y2="37.5"/>
<line x1="162.5" y1="37.5" x2="162.5" y2="50.0"/>
<line x1="150.0" y1="62.5" x2="162.5" y2="62.5"/>
<line x1="150.0" y1="75.0" x2="162.5" y2="75.0"/>
<line x1="150.0" y1="100.0" x2="162.5" y2="100.0"/>
<line x1="162.5" y1="100.0" x2="162.5" y2="112.5"/>
<line x1="162.5" y1="112.5" x2="162.5" y2="125.0"/>
<line x1="150.0" y1="137.5" x2="162.5" y2="137.5"/>
<line x1="162.5" y1="137.5" x2="162.5" y2="150.0"/>
<line x1="150.0" y1="162.5" x2="162.5" y2="162.5"/>
<line x1="162.5" y1="150.0" x2="162.5" y2="162.5"/>
<line x1="150.0" y1="187.5" x2="162.5" y2="187.5"/>
<line x1="162.5" y1="175.0" x2="162.5" y2="187.5"/>
<line x1="150.0" y1="200.0" x2="162.5" y2="200.0"/>
<line x1="162.5" y1="200.0" x2="162.5" y2="212.5"/>
<line x1="150.0" y1="225.0" x2="162.5" y2="225.0"/>
<line x1="162.5" y1="225.0" x2="162.5" y2="237.5"/>
<line x1="150.0" y1="250.0" x2="162.5" y2="250.0"/>
<line x1="162.5" y1="237.5" x2="162.5" y2="250.0"/>
<line x1="150.0" y1="275.0" x2="162.5" y2="275.0"/>
<line x1="162.5" y1="262.5" x2="162.5" y2="275.0"/>
<line x1="150.0" y1="287.5" x2="162.5" y2="287.5"/>
<line x1="150.0" y1="300.0" x2="162.5" y2="300.0"/>
<line x1="162.5" y1="300.0" x2="162.5" y2="312.5"/>
<line x1="150.0" y1="325.0" x2="162.5" y2="325.0"/>
<line x1="150.0" y1="350.0" x2="162.5" y2="350.0"/>
<line x1="150.0" y1="362.5" x2="162.5" y2="362.5"/>
<line x1="162.5" y1="362.5" x2="162.5" y2="375.0"/>
<line x1="150.0" y1="387.5" x2="162.5" y2="387.5"/>
<line x1="150.0" y1="400.0" x2="162.5" y2="400.0"/>
<line x1="162.5" y1="400.0" x2="162.5" y2="412.5"/>
<line x1="150.0" y1="425.0" x2="162.5" y2="425.0"/>
<line x1="162.5" y1="412.5" x2="162.5" y2="425.0"/>
<line x1="162.5" y1="425.0" x2="162.5" y2="437.5"/>
<line x1="150.0" y1="450.0" x2="162.5" y2="450.0"/>
<line x1="150.0" y1="462.5" x2="162.5" y2="462.5"/>
<line x1="150.0" y1="487.5" x2="162.5" y2="487.5"/>
<line x1="162.5" y1="475.0" x2="162.5" y2="487.5"/>
<line x1="150.0" y1="500.0" x2="162.5" y2="500.0"/>
<line x1="175.0" y1="0.0" x2="175.0" y2="12.5"/>
<line x1="162.5" y1="25.0" x2="175.0" y2="25.0"/>
<line x1="175.0" y1="12.5" x2="175.0" y2="25.0"/>
<line x1="175.0" y1="37.5" x2="175.0" y2="50.0"/>
<line x1="162.5" y1="62.5" x2="175.0" y2="62.5"/>
<line x1="175.0" y1="50.0" x2="175.0" y2="62.5"/>
<line x1="175.0" y1="62.5" x2="175.0" y2="75.0"/>
<line x1="162.5" y1="87.5" x2="175.0" y2="87.5"/>
<line x1="175.0" y1="87.5" x2="175.0" y2="100.0"/>
<line x1="162.5" y1="125.0" x2="175.0" y2="125.0"/>
<line x1="175.0" y1="125.0" x2="175.0" y2="137.5"/>
<line x1="162.5" y1="150.0" x2="175.0" y2="150.0"/>
<line x1="162.5" y1="175.0" x2="175.0" y2="175.0"/>
<line x1="175.0" y1="162.5" x2="175.0" y2="175.0"/>
<line x1="162.5" y1="187.5" x2="175.0" y2="187.5"/>
<line x1="162.5" y1="200.0" x2="175.0" y2="200.0"/>
<line x1="162.5" y1="225.0" x2="175.0" y2="225.0"/>
<line x1="175.0" y1="212.5" x2="175.0" y2="225.0"/>
<line x1="175.0" y1="225.0" x2="175.0" y2="237.5"/>
<line x1="175.0" y1="237.5" x2="175.0" y2="250.0"/>
<line x1="162.5" y1="262.5" x2="175.0" y2="262.5"/>
<line x1="175.0" y1="250.0" x2="175.0" y2="262.5"/>
<line x1="162.5" y1="287.5" x2="175.0" y2="287.5"/>
<line x1="175.0" y1="275.0" x2="175.0" y2="287.5"/>
<line x1="175.0" y1="287.5" x2="175.0" y2="300.0"/>
<line x1="162.5" y1="312.5" x2="175.0" y2="312.5"/>
<line x1="175.0" y1="312.5" x2="175.0" y2="325.0"/>
<line x1="162.5" y1="337.5" x2="175.0" y2="337.5"/>
<line x1="175.0" y1="325.0" x2="175.0" y2="337.5"/>
<line x1="162.5" y1="350.0" x2="175.0" y2="350.0"/>
<line x1="175.0" y1="350.0" x2="175.0" y2="362.5"/>
<line x1="162.5" y1="387.5" x2="175.0" y2="387.5"/>
<line x1="175.0" y1="375.0" x2="175.0" y2="387.5"/>
<line x1="162.5" y1="400.0" x2="175.0" y2="400.0"/>
<line x1="175.0" y1="387.5" x2="175.0" y2="400.0"/>
<line x1="175.0" y1="412.5" x2="175.0" y2="425.0"/>
<line x1="162.5" y1="437.5" x2="175.0" y2="437.5"/>
<line x1="162.5" y1="450.0" x2="175.0" y2="450.0"/>
<line x1="162.5" y1="462.5" x2="175.0" y2="462.5"/>
<line x1="162.5" y1="475.0" x2="175.0" y2="475.0"/>
<line x1="175.0" y1="475.0" x2="175.0" y2="487.5"/>
<line x1="162.5" y1="500.0" x2="175.0" y2="500.0"/>
<line x1="187.5" y1="12.5" x2="187.5" y2="25.0"/>
<line x1="175.0" y1="37.5" x2="187.5" y2="37.5"/>
<line x1="187.5" y1="25.0" x2="187.5" y2="37.5"/>
<line x1="187.5" y1="37.5" x2="187.5" y2="50.0"/>
<line x1="175.0" y1="75.0" x2="187.5" y2="75.0"/>
<line x1="175.0" y1="87.5" x2="187.5" y2="87.5"/>
<line x1="187.5" y1="75.0" x2="187.5" y2="87.5"/>
<line x1="175.0" y1="112.5" x2="187.5" y2="112.5"/>
<line x1="187.5" y1="100.0" x2="187.5" y2="112.5"/>
<line x1="187.5" y1="112.5" x2="187.5" y2="125.0"/>
<line x1="175.0" y1="137.5" x2="187.5" y2="137.5"/>
<line x1="187.5" y1="137.5" x2="187.5" y2="150.0"/>
<line x1="175.0" y1="162.5" x2="187.5" y2="162.5"/>
<line x1="187.5" y1="150.0" x2="187.5" y2="162.5"/>
<line x1="187.5" y1="162.5" x2="187.5" y2="175.0"/>
<line x1="175.0" y1="200.0" x2="187.5" y2="200.0"/>
<line x1="187.5" y1="187.5" x2="187.5" y2="200.0"/>
<line x1="187.5" y1="200.0" x2="187.5" y2="212.5"/>
<line x1="187.5" y1="212.5" x2="187.5" y2="225.0"/>
<line x1="187.5" y1="225.0" x2="187.5" y2="237.5"/>
<line x1="187.5" y1="237.5" x2="187.5" y2="250.0"/>
<line x1="187.5" y1="250.0" x2="187.5" y2="262.5"/>
<line x1="175.0" y1="275.0" x2="187.5" y2="275.0"/>
<line x1="187.5" y1="262.5" x2="187.5" y2="275.0"/>
<line x1="187.5" y1="275.0" x2="187.5" y2="287.5"/>
<line x1="175.0" y1="300.0" x2="187.5" y2="300.0"/>
<line x1="175.0" y1="312.5" x2="187.5" y2="312.5"/>
<line x1="175.0" y1="337.5" x2="187.5" y2="337.5"/>
<line x1="175.0" y1="350.0" x2="187.5" y2="350.0"/>
<line x1="187.5" y1="350.0" x2="187.5" y2="362.5"/>
<line x1="175.0" y1="375.0" x2="187.5" y2="375.0"/>
<line x1="187.5" y1="362.5" x2="187.5" y2="375.0"/>
<line x1="187.5" y1="387.5" x2="187.5" y2="400.0"/>
<line x1="175.0" y1="412.5" x2="187.5" y2="412.5"/>
<line x1="187.5" y1="400.0" x2="187.5" y2="412.5"/>
<line x1="175.0" y1="425.0" x2="187.5" y2="425.0"/>
<line x1="187.5" y1="425.0" x2="187.5" y2="437.5"/>
<line x1="175.0" y1="450.0" x2="187.5" y2="450.0"/>
<line x1="187.5" y1="437.5" x2="187.5" y2="450.0"/>
<line x1="175.0" y1="462.5" x2="187.5" y2="462.5"/>
<line x1="175.0" y1="475.0" x2="187.5" y2="475.0"/>
<line x1="175.0" y1="500.0" x2="187.5" y2="500.0"/>
<line x1="200.0" y1="0.0" x2="200.0" y2="12.5"/>
<line x1="200.0" y1="12.5" x2="200.0" y2="25.0"/>
<line x1="200.0" y1="25.0" x2="200.0" y2="37.5"/>
<line x1="187.5" y1="50.0" x2="200.0" y2="50.0"/>
<line x1="187.5" y1="62.5" x2="200.0" y2="62.5"/>
<line x1="200.0" y1="62.5" x2="200.0" y2="75.0"/>
<line x1="200.0" y1="75.0" x2="200.0" y2="87.5"/>
<line x1="187.5" y1="100.0" x2="200.0" y2="100.0"/>
<line x1="200.0" y1="87.5" x2="200.0" y2="100.0"/>
<line x1="187.5" y1="112.5" x2="200.0" y2="112.5"/>
<line x1="187.5" y1="137.5" x2="200.0" y2="137.5"/>
<line x1="200.0" y1="125.0" x2="200.0" y2="137.5"/>
<line x1="200.0" y1="137.5" x2="200.0" y2="150.0"/>
<line x1="187.5" y1="175.0" x2="200.0" y2="175.0"/>
<line x1="187.5" y1="187.5" x2="200.0" y2="187.5"/>
<line x1="200.0" y1="187.5" x2="200.0" y2="200.0"/>
<line x1="187.5" y1="225.0" x2="200.0" y2="225.0"/>
<line x1="200.0" y1="237.5" x2="200.0" y2="250.0"/>
<line x1="200.0" y1="250.0" x2="200.0" y2="262.5"/>
<line x1="200.0" y1="262.5" x2="200.0" y2="275.0"/>
<line x1="200.0" y1="275.0" x2="200.0" y2="287.5"/>
<line x1="187.5" y1="300.0" x2="200.0" y2="300.0"/>
<line x1="187.5" y1="312.5" x2="200.0" y2="312.5"/>
<line x1="187.5" y1="325.0" x2="200.0" y2="325.0"/>
<line x1="187.5" y1="337.5" x2="200.0" y2="337.5"/>
<line x1="200.0" y1="337.5" x2="200.0" y2="350.0"/>
<line x1="187.5" y1="362.5" x2="200.0" y2="362.5"/>
<line x1="187.5" y1="387.5" x2="200.0" y2="387.5"/>
<line x1="200.0" y1="375.0" x2="200.0" y2="387.5"/>
<line x1="200.0" y1="400.0" x2="200.0" y2="412.5"/>
<line x1="200.0" y1="412.5" x2="200.0" y2="425.0"/>
<line x1="200.0" y1="437.5" x2="200.0" y2="450.0"/>
<line x1="187.5" y1="462.5" x2="200.0" y2="462.5"/>
<line x1="200.0" y1="450.0" x2="200.0" y2="462.5"/>
<line x1="187.5" y1="475.0" x2="200.0" y2="475.0"/>
<line x1="187.5" y1="487.5" x2="200.0" y2="487.5"/>
<line x1="187.5" y1="500.0" x2="200.0" y2="500.0"/>
<line x1="200.0" y1="487.5" x2="200.0" y2="500.0"/>
<line x1="212.5" y1="0.0" x2="212.5" y2="12.5"/>
<line x1="200.0" y1="37.5" x2="212.5" y2="37.5"/>
<line x1="200.0" y1="50.0" x2="212.5" y2="50.0"/>
<line x1="200.0" y1="75.0" x2="212.5" y2="75.0"/>
<line x1="212.5" y1="87.5" x2="212.5" y2="100.0"/>
<line x1="212.5" y1="100.0" x2="212.5" y2="112.5"/>
<line x1="200.0" y1="125.0" x2="212.5" y2="125.0"/>
<line x1="212.5" y1="112.5" x2="212.5" y2="125.0"/>
<line x1="212.5" y1="137.5" x2="212.5" y2="150.0"/>
<line x1="200.0" y1="162.5" x2="212.5" y2="162.5"/>
<line x1="212.5" y1="150.0" x2="212.5" y2="162.5"/>
<line x1="200.0" y1="175.0" x2="212.5" y2="175.0"/>
<line x1="200.0" y1="187.5" x2="212.5" y2="187.5"/>
<line x1="200.0" y1="212.5" x2="212.5" y2="212.5"/>
<line x1="212.5" y1="200.0" x2="212.5" y2="212.5"/>
<line x1="212.5" y1="212.5" x2="212.5" y2="225.0"/>
<line x1="200.0" y1="237.5" x2="212.5" y2="237.5"/>
<line x1="212.5" y1="225.0" x2="212.5" y2="237.5"/>
<line x1="212.5" y1="250.0" x2="212.5" y2="262.5"/>
<line x1="200.0" y1="275.0" x2="212.5" y2="275.0"/>
<line x1="200.0" y1="300.0" x2="212.5" y2="300.0"/>
<line x1="212.5" y1="287.5" x2="212.5" y2="300.0"/>
<line x1="212.5" y1="300.0" x2="212.5" y2="312.5"/>
<line x1="200.0" y1="325.0" x2="212.5" y2="325.0"/>
<line x1="212.5" y1="312.5" x2="212.5" y2="325.0"/>
<line x1="200.0" y1="350.0" x2="212.5" y2="350.0"/>
<line x1="200.0" y1="375.0" x2="212.5" y2="375.0"/>
<line x1="212.5" y1="362.5" x2="212.5" y2="375.0"/>
<line x1="212.5" y1="375.0" x2="212.5" y2="387.5"/>
<line x1="200.0" y1="400.0" x2="212.5" y2="400.0"/>
<line x1="200.0" y1="425.0" x2="212.5" y2="425.0"/>
<line x1="212.5" y1="412.5" x2="212.5" y2="425.0"/>
<line x1="212.5" y1="425.0" x2="212.5" y2="437.5"/>
<line x1="212.5" y1="450.0" x2="212.5" y2="462.5"/>
<line x1="200.0" y1="475.0" x2="212.5" y2="475.0"/>
<line x1="212.5" y1="462.5" x2="212.5" y2="475.0"/>
<line x1="212.5" y1="475.0" x2="212.5" y2="487.5"/>
<line x1="200.0" y1="500.0" x2="212.5" y2="500.0"/>
<line x1="212.5" y1="25.0" x2="225.0" y2="25.0"/>
<line x1="225.0" y1="12.5" x2="225.0" y2="25.0"/>
<line x1="212.5" y1="37.5" x2="225.0" y2="37.5"/>
<line x1="225.0" y1="25.0" x2="225.0" y2="37.5"/>
<line x1="212.5" y1="50.0" x2="225.0" y2="50.0"/>
<line x1="212.5" y1="62.5" x2="225.0" y2="62.5"/>
<line x1="212.5" y1="75.0" x2="225.0" y2="75.0"/>
<line x1="225.0" y1="75.0" x2="225.0" y2="87.5"/>
<line x1="212.5" y1="100.0" x2="225.0" y2="100.0"/>
<line x1="225.0" y1="100.0" x2="225.0" y2="112.5"/>
<line x1="212.5" y1="137.5" x2="225.0" y2="137.5"/>
<line x1="225.0" y1="125.0" x2="225.0" y2="137.5"/>
<line x1="225.0" y1="137.5" x2="225.0" y2="150.0"/>
<line x1="212.5" y1="162.5" x2="225.0" y2="162.5"/>
<line x1="212.5" y1="175.0" x2="225.0" y2="175.0"/>
<line x1="225.0" y1="175.0" x2="225.0" y2="187.5"/>
<line x1="212.5" y1="200.0" x2="225.0" y2="200.0"/>
<line x1="225.0" y1="187.5" x2="225.0" y2="200.0"/>
<line x1="225.0" y1="212.5" x2="225.0" y2="225.0"/>
<line x1="225.0" y1="225.0" x2="225.0" y2="237.5"/>
<line x1="212.5" y1="250.0" x2="225.0" y2="250.0"/>
<line x1="212.5" y1="275.0" x2="225.0" y2="275.0"/>
<line x1="225.0" y1="262.5" x2="225.0" y2="275.0"/>
<line x1="212.5" y1="287.5" x2="225.0" y2="287.5"/>
<line x1="225.0" y1="300.0" x2="225.0" y2="312.5"/>
<line x1="212.5" y1="325.0" x2="225.0" y2="325.0"/>
<line x1="212.5" y1="337.5" x2="225.0" y2="337.5"/>
<line x1="212.5" y1="350.0" x2="225.0" y2="350.0"/>
<line x1="212.5" y1="362.5" x2="225.0" y2="362.5"/>
<line x1="225.0" y1="350.0" x2="225.0" y2="362.5"/>
<line x1="212.5" y1="387.5" x2="225.0" y2="387.5"/>
<line x1="225.0" y1="387.5" x2="225.0" y2="400.0"/>
<line x1="212.5" y1="412.5" x2="225.0" y2="412.5"/>
<line x1="225.0" y1="400.0" x2="225.0" y2="412.5"/>
<line x1="212.5" y1="437.5" x2="225.0" y2="437.5"/>
<line x1="225.0" y1="437.5" x2="225.0" y2="450.0"/>
<line x1="212.5" y1="462.5" x2="225.0" y2="462.5"/>
<line x1="212.5" y1="487.5" x2="225.0" y2="487.5"/>
<line x1="212.5" y1="500.0" x2="225.0" y2="500.0"/>
<line x1="237.5" y1="12.5" x2="237.5" y2="25.0"/>
<line x1="237.5" y1="25.0" x2="237.5" y2="37.5"/>
<line x1="225.0" y1="50.0" x2="237.5" y2="50.0"/>
<line x1="237.5" y1="37.5" x2="237.5" y2="50.0"/>
<line x1="225.0" y1="62.5" x2="237.5" y2="62.5"/>
<line x1="237.5" y1="50.0" x2="237.5" y2="62.5"/>
<line x1="225.0" y1="75.0" x2="237.5" y2="75.0"/>
<line x1="225.0" y1="87.5" x2="237.5" y2="87.5"/>
<line x1="237.5" y1="87.5" x2="237.5" y2="100.0"/>
<line x1="225.0" y1="112.5" x2="237.5" y2="112.5"/>
<line x1="225.0" y1="125.0" x2="237.5" y2="125.0"/>
<line x1="237.5" y1="137.5" x2="237.5" y2="150.0"/>
<line x1="225.0" y1="162.5" x2="237.5" y2="162.5"/>
<line x1="225.0" y1="175.0" x2="237.5" y2="175.0"/>
<line x1="225.0" y1="187.5" x2="237.5" y2="187.5"/>
<line x1="225.0" y1="212.5" x2="237.5" y2="212.5"/>
<line x1="237.5" y1="200.0" x2="237.5" y2="212.5"/>
<line x1="225.0" y1="237.5" x2="237.5" y2="237.5"/>
<line x1="225.0" y1="250.0" x2="237.5" y2="250.0"/>
<line x1="225.0" y1="262.5" x2="237.5" y2="262.5"/>
<line x1="237.5" y1="250.0" x2="237.5" y2="262.5"/>
<line x1="225.0" y1="287.5" x2="237.5" y2="287.5"/>
<line x1="237.5" y1="275.0" x2="237.5" y2="287.5"/>
<line x1="237.5" y1="287.5" x2="237.5" y2="300.0"/>
<line x1="225.0" y1="312.5" x2="237.5" y2="312.5"/>
<line x1="225.0" y1="325.0" x2="237.5" y2="325.0"/>
<line x1="225.0" y1="337.5" x2="237.5" y2="337.5"/>
<line x1="237.5" y1="337.5" x2="237.5" y2="350.0"/>
<line x1="225.0" y1="362.5" x2="237.5" y2="362.5"/>
<line x1="225.0" y1="375.0" x2="237.5" y2="375.0"/>
<line x1="237.5" y1="375.0" x2="237.5" y2="387.5"/>
<line x1="237.5" y1="387.5" x2="237.5" y2="400.0"/>
<line x1="237.5" y1="400.0" x2="237.5" y2="412.5"/>
<line x1="225.0" y1="425.0" x2="237.5" y2="425.0"/>
<line x1="237.5" y1="412.5" x2="237.5" y2="425.0"/>
<line x1="225.0" y1="437.5" x2="237.5" y2="437.5"/>
<line x1="237.5" y1="437.5" x2="237.5" y2="450.0"/>
<line x1="225.0" y1="462.5" x2="237.5" y2="462.5"/>
<line x1="225.0" y1="475.0" x2="237.5" y2="475.0"/>
<line x1="237.5" y1="475.0" x2="237.5" y2="487.5"/>
<line x1="225.0" y1="500.0" x2="237.5" y2="500.0"/>
<line x1="237.5" y1="12.5" x2="250.0" y2="12.5"/>
<line x1="250.0" y1="12.5" x2="250.0" y2="25.0"/>
<line x1="237.5" y1="50.0" x2="250.0" y2="50.0"/>
<line x1="237.5" y1="75.0" x2="250.0" y2="75.0"/>
<line x1="250.0" y1="62.5" x2="250.0" y2="75.0"/>
<line x1="250.0" y1="75.0" x2="250.0" y2="87.5"/>
<line x1="237.5" y1="100.0" x2="250.0" y2="100.0"/>
<line x1="250.0" y1="100.0" x2="250.0" y2="112.5"/>
<line x1="237.5" y1="125.0" x2="250.0" y2="125.0"/>
<line x1="250.0" y1="112.5" x2="250.0" y2="125.0"/>
<line x1="237.5" y1="150.0" x2="250.0" y2="150.0"/>
<line x1="237.5" y1="162.5" x2="250.0" y2="162.5"/>
<line x1="237.5" y1="175.0" x2="250.0" y2="175.0"/>
<line x1="250.0" y1="187.5" x2="250.0" y2="200.0"/>
<line x1="237.5" y1="212.5" x2="250.0" y2="212.5"/>
<line x1="250.0" y1="200.0" x2="250.0" y2="212.5"/>
<line x1="237.5" y1="225.0" x2="250.0" y2="225.0"/>
<line x1="237.5" y1="237.5" x2="250.0" y2="237.5"/>
<line x1="237.5" y1="250.0" x2="250.0" y2="250.0"/>
<line x1="237.5" y1="275.0" x2="250.0" y2="275.0"/>
<line x1="250.0" y1="262.5" x2="250.0" y2="275.0"/>
<line x1="237.5" y1="287.5" x2="250.0" y2="287.5"/>
<line x1="237.5" y1="312.5" x2="250.0" y2="312.5"/>
<line x1="250.0" y1="300.0" x2="250.0" y2="312.5"/>
<line x1="237.5" y1="325.0" x2="250.0" y2="325.0"/>
<line x1="237.5" y1="337.5" x2="250.0" y2="337.5"/>
<line x1="250.0" y1="325.0" x2="250.0" y2="337.5"/>
<line x1="237.5" y1="362.5" x2="250.0" y2="362.5"/>
<line x1="250.0" y1="350.0" x2="250.0" y2="362.5"/>
<line x1="250.0" y1="362.5" x2="250.0" y2="375.0"/>
<line x1="237.5" y1="387.5" x2="250.0" y2="387.5"/>
<line x1="250.0" y1="400.0" x2="250.0" y2="412.5"/>
<line x1="237.5" y1="425.0" x2="250.0" y2="425.0"/>
<line x1="250.0" y1="412.5" x2="250.0" y2="425.0"/>
<line x1="250.0" y1="425.0" x2="250.0" y2="437.5"/>
<line x1="237.5" y1="450.0" x2="250.0" y2="450.0"/>
<line x1="237.5" y1="462.5" x2="250.0" y2="462.5"/>
<line x1="237.5" y1="475.0" x2="250.0" y2="475.0"/>
<line x1="250.0" y1="475.0" x2="250.0" y2="487.5"/>
<line x1="237.5" y1="500.0" x2="250.0" y2="500.0"/>
<line x1="250.0" y1="487.5" x2="250.0" y2="500.0"/>
<line x1="262.5" y1="0.0" x2="262.5" y2="12.5"/>
<line x1="262.5" y1="12.5" x2="262.5" y2="25.0"/>
<line x1="250.0" y1="37.5" x2="262.5" y2="37.5"/>
<line x1="262.5" y1="25.0" x2="262.5" y2="37.5"/>
<line x1="262.5" y1="37.5" x2="262.5" y2="50.0"/>
<line x1="250.0" y1="62.5" x2="262.5" y2="62.5"/>
<line x1="262.5" y1="50.0" x2="262.5" y2="62.5"/>
<line x1="262.5" y1="75.0" x2="262.5" y2="87.5"/>
<line x1="250.0" y1="100.0" x2="262.5" y2="100.0"/>
<line x1="262.5" y1="87.5" x2="262.5" y2="100.0"/>
<line x1="250.0" y1="125.0" x2="262.5" y2="125.0"/>
<line x1="250.0" y1="137.5" x2="262.5" y2="137.5"/>
<line x1="250.0" y1="150.0" x2="262.5" y2="150.0"/>
<line x1="250.0" y1="162.5" x2="262.5" y2="162.5"/>
<line x1="250.0" y1="175.0" x2="262.5" y2="175.0"/>
<line x1="262.5" y1="175.0" x2="262.5" y2="187.5"/>
<line x1="250.0" y1="200.0" x2="262.5" y2="200.0"/>
<line x1="262.5" y1="187.5" x2="262.5" y2="200.0"/>
<line x1="250.0" y1="225.0" x2="262.5" y2="225.0"/>
<line x1="262.5" y1="212.5" x2="262.5" y2="225.0"/>
<line x1="250.0" y1="250.0" x2="262.5" y2="250.0"/>
<line x1="262.5" y1="237.5" x2="262.5" y2="250.0"/>
<line x1="262.5" y1="250.0" x2="262.5" y2="262.5"/>
<line x1="250.0" y1="275.0" x2="262.5" y2="275.0"/>
<line x1="250.0" y1="287.5" x2="262.5" y2="287.5"/>
<line x1="250.0" y1="300.0" x2="262.5" y2="300.0"/>
<line x1="262.5" y1="300.0" x2="262.5" y2="312.5"/>
<line x1="262.5" y1="325.0" x2="262.5" y2="337.5"/>
<line x1="250.0" y1="350.0" x2="262.5" y2="350.0"/>
<line x1="262.5" y1="337.5" x2="262.5" y2="350.0"/>
<line x1="262.5" y1="362.5" x2="262.5" y2="375.0"/>
<line x1="250.0" y1="387.5" x2="262.5" y2="387.5"/>
<line x1="262.5" y1="375.0" x2="262.5" y2="387.5"/>
<line x1="250.0" y1="400.0" x2="262.5" y2="400.0"/>
<line x1="262.5" y1="412.5" x2="262.5" y2="425.0"/>
<line x1="262.5" y1="425.0" x2="262.5" y2="437.5"/>
<line x1="250.0" y1="450.0" x2="262.5" y2="450.0"/>
<line x1="262.5" y1="437.5" x2="262.5" y2="450.0"/>
<line x1="250.0" y1="462.5" x2="262.5" y2="462.5"/>
<line x1="262.5" y1="475.0" x2="262.5" y2="487.5"/>
<line x1="250.0" y1="500.0" x2="262.5" y2="500.0"/>
<line x1="262.5" y1="12.5" x2="275.0" y2="12.5"/>
<line x1="275.0" y1="25.0" x2="275.0" y2="37.5"/>
<line x1="275.0" y1="50.0" x2="275.0" y2="62.5"/>
<line x1="262.5" y1="75.0" x2="275.0" y2="75.0"/>
<line x1="275.0" y1="62.5" x2="275.0" y2="75.0"/>
<line x1="275.0" y1="87.5" x2="275.0" y2="100.0"/>
<line x1="262.5" y1="112.5" x2="275.0" y2="112.5"/>
<line x1="275.0" y1="100.0" x2="275.0" y2="112.5"/>
<line x1="275.0" y1="112.5" x2="275.0" y2="125.0"/>
<line x1="262.5" y1="137.5" x2="275.0" y2="137.5"/>
<line x1="275.0" y1="125.0" x2="275.0" y2="137.5"/>
<line x1="262.5" y1="150.0" x2="275.0" y2="150.0"/>
<line x1="262.5" y1="162.5" x2="275.0" y2="162.5"/>
<line x1="275.0" y1="150.0" x2="275.0" y2="162.5"/>
<line x1="275.0" y1="162.5" x2="275.0" y2="175.0"/>
<line x1="262.5" y1="187.5" x2="275.0" y2="187.5"/>
<line x1="262.5" y1="212.5" x2="275.0" y2="212.5"/>
<line x1="275.0" y1="200.0" x2="275.0" y2="212.5"/>
<line x1="275.0" y1="212.5" x2="275.0" y2="225.0"/>
<line x1="262.5" y1="237.5" x2="275.0" y2="237.5"/>
<line x1="275.0" y1="225.0" x2="275.0" y2="237.5"/>
<line x1="262.5" y1="262.5" x2="275.0" y2="262.5"/>
<line x1="262.5" y1="287.5" x2="275.0" y2="287.5"/>
<line x1="275.0" y1="275.0" x2="275.0" y2="287.5"/>
<line x1="275.0" y1="287.5" x2="275.0" y2="300.0"/>
<line x1="262.5" y1="312.5" x2="275.0" y2="312.5"/>
<line x1="262.5" y1="325.0" x2="275.0" y2="325.0"/>
<line x1="275.0" y1="312.5" x2="275.0" y2="325.0"/>
<line x1="275.0" y1="337.5" x2="275.0" y2="350.0"/>
<line x1="262.5" y1="362.5" x2="275.0" y2="362.5"/>
<line x1="275.0" y1="350.0" x2="275.0" y2="362.5"/>
<line x1="275.0" y1="375.0" x2="275.0" y2="387.5"/>
<line x1="262.5" y1="400.0" x2="275.0" y2="400.0"/>
<line x1="275.0" y1="400.0" x2="275.0" y2="412.5"/>
<line x1="262.5" y1="425.0" x2="275.0" y2="425.0"/>
<line x1="275.0" y1="425.0" x2="275.0" y2="437.5"/>
<line x1="275.0" y1="437.5" x2="275.0" y2="450.0"/>
<line x1="262.5" y1="462.5" x2="275.0" y2="462.5"/>
<line x1="275.0" y1="462.5" x2="275.0" y2="475.0"/>
<line x1="262.5" y1="487.5" x2="275.0" y2="487.5"/>
<line x1="275.0" y1="475.0" x2="275.0" y2="487.5"/>
<line x1="262.5" y1="500.0" x2="275.0" y2="500.0"/>
<line x1="275.0" y1="12.5" x2="287.5" y2="12.5"/>
<line x1="287.5" y1="12.5" x2="287.5" y2="25.0"/>
<line x1="275.0" y1="37.5" x2="287.5" y2="37.5"/>
<line x1="287.5" y1="37.5" x2="287.5" y2="50.0"/>
<line x1="287.5" y1="50.0" x2="287.5" y2="62.5"/>
<line x1="275.0" y1="75.0" x2="287.5" y2="75.0"/>
<line x1="275.0" y1="87.5" x2="287.5" y2="87.5"/>
<line x1="275.0" y1="112.5" x2="287.5" y2="112.5"/>
<line x1="287.5" y1="125.0" x2="287.5" y2="137.5"/>
<line x1="275.0" y1="150.0" x2="287.5" y2="150.0"/>
<line x1="287.5" y1="137.5" x2="287.5" y2="150.0"/>
<line x1="287.5" y1="162.5" x2="287.5" y2="175.0"/>
<line x1="275.0" y1="187.5" x2="287.5" y2="187.5"/>
<line x1="287.5" y1="175.0" x2="287.5" y2="187.5"/>
<line x1="287.5" y1="200.0" x2="287.5" y2="212.5"/>
<line x1="287.5" y1="212.5" x2="287.5" y2="225.0"/>
<line x1="275.0" y1="250.0" x2="287.5" y2="250.0"/>
<line x1="287.5" y1="237.5" x2="287.5" y2="250.0"/>
<line x1="287.5" y1="250.0" x2="287.5" y2="262.5"/>
<line x1="275.0" y1="275.0" x2="287.5" y2="275.0"/>
<line x1="287.5" y1="262.5" x2="287.5" y2="275.0"/>
<line x1="275.0" y1="300.0" x2="287.5" y2="300.0"/>
<line x1="275.0" y1="325.0" x2="287.5" y2="325.0"/>
<line x1="287.5" y1="325.0" x2="287.5" y2="337.5"/>
<line x1="287.5" y1="337.5" x2="287.5" y2="350.0"/>
<line x1="287.5" y1="350.0" x2="287.5" y2="362.5"/>
<line x1="275.0" y1="375.0" x2="287.5" y2="375.0"/>
<line x1="287.5" y1="362.5" x2="287.5" y2="375.0"/>
<line x1="275.0" y1="400.0" x2="287.5" y2="400.0"/>
<line x1="287.5" y1="387.5" x2="287.5" y2="400.0"/>
<line x1="275.0" y1="412.5" x2="287.5" y2="412.5"/>
<line x1="275.0" y1="425.0" x2="287.5" y2="425.0"/>
<line x1="275.0" y1="450.0" x2="287.5" y2="450.0"/>
<line x1="287.5" y1="450.0" x2="287.5" y2="462.5"/>
<line x1="287.5" y1="462.5" x2="287.5" y2="475.0"/>
<line x1="287.5" y1="475.0" x2="287.5" y2="487.5"/>
<line x1="275.0" y1="500.0" x2="287.5" y2="500.0"/>
<line x1="300.0" y1="12.5" x2="300.0" y2="25.0"/>
<line x1="287.5" y1="37.5" x2="300.0" y2="37.5"/>
<line x1="300.0" y1="25.0" x2="300.0" y2="37.5"/>
<line x1="300.0" y1="37.5" x2="300.0" y2="50.0"/>
<line x1="287.5" y1="62.5" x2="300.0" y2="62.5"/>
<line x1="287.5" y1="75.0" x2="300.0" y2="75.0"/>
<line x1="300.0" y1="75.0" x2="300.0" y2="87.5"/>
<line x1="287.5" y1="100.0" x2="300.0" y2="100.0"/>
<line x1="300.0" y1="87.5" x2="300.0" y2="100.0"/>
<line x1="287.5" y1="112.5" x2="300.0" y2="112.5"/>
<line x1="300.0" y1="112.5" x2="300.0" y2="125.0"/>
<line x1="300.0" y1="125.0" x2="300.0" y2="137.5"/>
<line x1="300.0" y1="137.5" x2="300.0" y2="150.0"/>
<line x1="287.5" y1="162.5" x2="300.0" y2="162.5"/>
<line x1="300.0" y1="150.0" x2="300.0" y2="162.5"/>
<line x1="300.0" y1="162.5" x2="300.0" y2="175.0"/>
<line x1="300.0" y1="175.0" x2="300.0" y2="187.5"/>
<line x1="287.5" y1="200.0" x2="300.0" y2="200.0"/>
<line x1="300.0" y1="187.5" x2="300.0" y2="200.0"/>
<line x1="287.5" y1="225.0" x2="300.0" y2="225.0"/>
<line x1="287.5" y1="237.5" x2="300.0" y2="237.5"/>
<line x1="300.0" y1="225.0" x2="300.0" y2="237.5"/>
<line x1="287.5" y1="262.5" x2="300.0" y2="262.5"/>
<line x1="287.5" y1="287.5" x2="300.0" y2="287.5"/>
<line x1="300.0" y1="275.0" x2="300.0" y2="287.5"/>
<line x1="287.5" y1="300.0" x2="300.0" y2="300.0"/>
<line x1="287.5" y1="312.5" x2="300.0" y2="312.5"/>
<line x1="300.0" y1="300.0" x2="300.0" y2="312.5"/>
<line x1="300.0" y1="312.5" x2="300.0" y2="325.0"/>
<line x1="287.5" y1="337.5" x2="300.0" y2="337.5"/>
<line x1="300.0" y1="350.0" x2="300.0" y2="362.5"/>
<line x1="287.5" y1="375.0" x2="300.0" y2="375.0"/>
<line x1="287.5" y1="387.5" x2="300.0" y2="387.5"/>
<line x1="287.5" y1="412.5" x2="300.0" y2="412.5"/>
<line x1="287.5" y1="425.0" x2="300.0" y2="425.0"/>
<line x1="287.5" y1="437.5" x2="300.0" y2="437.5"/>
<line x1="287.5" y1="450.0" x2="300.0" y2="450.0"/>
<line x1="287.5" y1="475.0" x2="300.0" y2="475.0"/>
<line x1="300.0" y1="462.5" x2="300.0" y2="475.0"/>
<line x1="287.5" y1="500.0" x2="300.0" y2="500.0"/>
<line x1="300.0" y1="487.5" x2="300.0" y2="500.0"/>
<line x1="312.5" y1="0.0" x2="312.5" y2="12.5"/>
<line x1="312.5" y1="12.5" x2="312.5" y2="25.0"/>
<line x1="312.5" y1="25.0" x2="312.5" y2="37.5"/>
<line x1="300.0" y1="50.0" x2="312.5" y2="50.0"/>
<line x1="300.0" y1="62.5" x2="312.5" y2="62.5"/>
<line x1="300.0" y1="87.5" x2="312.5" y2="87.5"/>
<line x1="312.5" y1="75.0" x2="312.5" y2="87.5"/>
<line x1="300.0" y1="112.5" x2="312.5" y2="112.5"/>
<line x1="312.5" y1="100.0" x2="312.5" y2="112.5"/>
<line x1="300.0" y1="137.5" x2="312.5" y2="137.5"/>
<line x1="312.5" y1="150.0" x2="312.5" y2="162.5"/>
<line x1="312.5" y1="162.5" x2="312.5" y2="175.0"/>
<line x1="312.5" y1="175.0" x2="312.5" y2="187.5"/>
<line x1="300.0" y1="200.0" x2="312.5" y2="200.0"/>
<line x1="300.0" y1="212.5" x2="312.5" y2="212.5"/>
<line x1="312.5" y1="212.5" x2="312.5" y2="225.0"/>
<line x1="312.5" y1="225.0" x2="312.5" y2="237.5"/>
<line x1="300.0" y1="250.0" x2="312.5" y2="250.0"/>
<line x1="312.5" y1="237.5" x2="312.5" y2="250.0"/>
<line x1="300.0" y1="275.0" x2="312.5" y2="275.0"/>
<line x1="312.5" y1="262.5" x2="312.5" y2="275.0"/>
<line x1="312.5" y1="275.0" x2="312.5" y2="287.5"/>
<line x1="312.5" y1="287.5" x2="312.5" y2="300.0"/>
<line x1="312.5" y1="300.0" x2="312.5" y2="312.5"/>
<line x1="312.5" y1="312.5" x2="312.5" y2="325.0"/>
<line x1="300.0" y1="337.5" x2="312.5" y2="337.5"/>
<line x1="312.5" y1="337.5" x2="312.5" y2="350.0"/>
<line x1="300.0" y1="362.5" x2="312.5" y2="362.5"/>
<line x1="312.5" y1="362.5" x2="312.5" y2="375.0"/>
<line x1="312.5" y1="375.0" x2="312.5" y2="387.5"/>
<line x1="300.0" y1="400.0" x2="312.5" y2="400.0"/>
<line x1="312.5" y1="387.5" x2="312.5" y2="400.0"/>
<line x1="300.0" y1="412.5" x2="312.5" y2="412.5"/>
<line x1="312.5" y1="412.5" x2="312.5" y2="425.0"/>
<line x1="300.0" y1="437.5" x2="312.5" y2="437.5"/>
<line x1="312.5" y1="425.0" x2="312.5" y2="437.5"/>
<line x1="300.0" y1="450.0" x2="312.5" y2="450.0"/>
<line x1="300.0" y1="462.5" x2="312.5" y2="462.5"/>
<line x1="300.0" y1="487.5" x2="312.5" y2="487.5"/>
<line x1="312.5" y1="475.0" x2="312.5" y2="487.5"/>
<line x1="300.0" y1="500.0" x2="312.5" y2="500.0"/>
<line x1="312.5" y1="25.0" x2="325.0" y2="25.0"/>
<line x1="325.0" y1="12.5" x2="325.0" y2="25.0"/>
<line x1="312.5" y1="50.0" x2="325.0" y2="50.0"/>
<line x1="325.0" y1="37.5" x2="325.0" y2="50.0"/>
<line x1="312.5" y1="62.5" x2="325.0" y2="62.5"/>
<line x1="325.0" y1="62.5" x2="325.0" y2="75.0"/>
<line x1="312.5" y1="87.5" x2="325.0" y2="87.5"/>
<line x1="312.5" y1="100.0" x2="325.0" y2="100.0"/>
<line x1="312.5" y1="125.0" x2="325.0" y2="125.0"/>
<line x1="325.0" y1="125.0" x2="325.0" y2="137.5"/>
<line x1="312.5" y1="150.0" x2="325.0" y2="150.0"/>
<line x1="325.0" y1="137.5" x2="325.0" y2="150.0"/>
<line x1="325.0" y1="150.0" x2="325.0" y2="162.5"/>
<line x1="312.5" y1="187.5" x2="325.0" y2="187.5"/>
<line x1="325.0" y1="175.0" x2="325.0" y2="187.5"/>
<line x1="312.5" y1="200.0" x2="325.0" y2="200.0"/>
<line x1="325.0" y1="200.0" x2="325.0" y2="212.5"/>
<line x1="312.5" y1="225.0" x2="325.0" y2="225.0"/>
<line x1="325.0" y1="237.5" x2="325.0" y2="250.0"/>
<line x1="312.5" y1="262.5" x2="325.0" y2="262.5"/>
<line x1="325.0" y1="250.0" x2="325.0" y2="262.5"/>
<line x1="325.0" y1="275.0" x2="325.0" y2="287.5"/>
<line x1="325.0" y1="287.5" x2="325.0" y2="300.0"/>
<line x1="312.5" y1="312.5" x2="325.0" y2="312.5"/>
<line x1="325.0" y1="312.5" x2="325.0" y2="325.0"/>
<line x1="312.5" y1="337.5" x2="325.0" y2="337.5"/>
<line x1="312.5" y1="350.0" x2="325.0" y2="350.0"/>
<line x1="312.5" y1="362.5" x2="325.0" y2="362.5"/>
<line x1="325.0" y1="375.0" x2="325.0" y2="387.5"/>
<line x1="312.5" y1="400.0" x2="325.0" y2="400.0"/>
<line x1="312.5" y1="412.5" x2="325.0" y2="412.5"/>
<line x1="325.0" y1="400.0" x2="325.0" y2="412.5"/>
<line x1="325.0" y1="425.0" x2="325.0" y2="437.5"/>
<line x1="312.5" y1="450.0" x2="325.0" y2="450.0"/>
<line x1="325.0" y1="437.5" x2="325.0" y2="450.0"/>
<line x1="312.5" y1="462.5" x2="325.0" y2="462.5"/>
<line x1="312.5" y1="475.0" x2="325.0" y2="475.0"/>
<line x1="312.5" y1="500.0" x2="325.0" y2="500.0"/>
<line x1="325.0" y1="25.0" x2="337.5" y2="25.0"/>
<line x1="337.5" y1="25.0" x2="337.5" y2="37.5"/>
<line x1="337.5" y1="37.5" x2="337.5" y2="50.0"/>
<line x1="337.5" y1="50.0" x2="337.5" y2="62.5"/>
<line x1="325.0" y1="75.0" x2="337.5" y2="75.0"/>
<line x1="337.5" y1="75.0" x2="337.5" y2="87.5"/>
<line x1="325.0" y1="100.0" x2="337.5" y2="100.0"/>
<line x1="337.5" y1="87.5" x2="337.5" y2="100.0"/>
<line x1="325.0" y1="112.5" x2="337.5" y2="112.5"/>
<line x1="337.5" y1="100.0" x2="337.5" y2="112.5"/>
<line x1="337.5" y1="112.5" x2="337.5" y2="125.0"/>
<line x1="337.5" y1="137.5" x2="337.5" y2="150.0"/>
<line x1="325.0" y1="162.5" x2="337.5" y2="162.5"/>
<line x1="337.5" y1="175.0" x2="337.5" y2="187.5"/>
<line x1="325.0" y1="200.0" x2="337.5" y2="200.0"/>
<line x1="337.5" y1="187.5" x2="337.5" y2="200.0"/>
<line x1="325.0" y1="225.0" x2="337.5" y2="225.0"/>
<line x1="337.5" y1="212.5" x2="337.5" y2="225.0"/>
<line x1="337.5" y1="225.0" x2="337.5" y2="237.5"/>
<line x1="325.0" y1="250.0" x2="337.5" y2="250.0"/>
<line x1="337.5" y1="237.5" x2="337.5" y2="250.0"/>
<line x1="325.0" y1="275.0" x2="337.5" y2="275.0"/>
<line x1="337.5" y1="262.5" x2="337.5" y2="275.0"/>
<line x1="325.0" y1="300.0" x2="337.5" y2="300.0"/>
<line x1="337.5" y1="287.5" x2="337.5" y2="300.0"/>
<line x1="337.5" y1="300.0" x2="337.5" y2="312.5"/>
<line x1="325.0" y1="325.0" x2="337.5" y2="325.0"/>
<line x1="337.5" y1="325.0" x2="337.5" y2="337.5"/>
<line x1="325.0" y1="350.0" x2="337.5" y2="350.0"/>
<line x1="325.0" y1="362.5" x2="337.5" y2="362.5"/>
<line x1="325.0" y1="375.0" x2="337.5" y2="375.0"/>
<line x1="325.0" y1="387.5" x2="337.5" y2="387.5"/>
<line x1="325.0" y1="400.0" x2="337.5" y2="400.0"/>
<line x1="325.0" y1="425.0" x2="337.5" y2="425.0"/>
<line x1="337.5" y1="412.5" x2="337.5" y2="425.0"/>
<line x1="325.0" y1="450.0" x2="337.5" y2="450.0"/>
<line x1="325.0" y1="475.0" x2="337.5" y2="475.0"/>
<line x1="337.5" y1="462.5" x2="337.5" y2="475.0"/>
<line x1="325.0" y1="487.5" x2="337.5" y2="487.5"/>
<line x1="325.0" y1="500.0" x2="337.5" y2="500.0"/>
<line x1="337.5" y1="12.5" x2="350.0" y2="12.5"/>
<line x1="350.0" y1="12.5" x2="350.0" y2="25.0"/>
<line x1="350.0" y1="25.0" x2="350.0" y2="37.5"/>
<line x1="337.5" y1="62.5" x2="350.0" y2="62.5"/>
<line x1="350.0" y1="62.5" x2="350.0" y2="75.0"/>
<line x1="337.5" y1="87.5" x2="350.0" y2="87.5"/>
<line x1="350.0" y1="100.0" x2="350.0" y2="112.5"/>
<line x1="337.5" y1="125.0" x2="350.0" y2="125.0"/>
<line x1="350.0" y1="125.0" x2="350.0" y2="137.5"/>
<line x1="337.5" y1="150.0" x2="350.0" y2="150.0"/>
<line x1="350.0" y1="137.5" x2="350.0" y2="150.0"/>
<line x1="337.5" y1="162.5" x2="350.0" y2="162.5"/>
<line x1="350.0" y1="162.5" x2="350.0" y2="175.0"/>
<line x1="337.5" y1="187.5" x2="350.0" y2="187.5"/>
<line x1="350.0" y1="187.5" x2="350.0" y2="200.0"/>
<line x1="337.5" y1="225.0" x2="350.0" y2="225.0"/>
<line x1="337.5" y1="250.0" x2="350.0" y2="250.0"/>
<line x1="337.5" y1="262.5" x2="350.0" y2="262.5"/>
<line x1="337.5" y1="287.5" x2="350.0" y2="287.5"/>
<line x1="350.0" y1="275.0" x2="350.0" y2="287.5"/>
<line x1="337.5" y1="312.5" x2="350.0" y2="312.5"/>
<line x1="337.5" y1="325.0" x2="350.0" y2="325.0"/>
<line x1="350.0" y1="325.0" x2="350.0" y2="337.5"/>
<line x1="337.5" y1="350.0" x2="350.0" y2="350.0"/>
<line x1="350.0" y1="337.5" x2="350.0" y2="350.0"/>
<line x1="337.5" y1="362.5" x2="350.0" y2="362.5"/>
<line x1="337.5" y1="375.0" x2="350.0" y2="375.0"/>
<line x1="350.0" y1="375.0" x2="350.0" y2="387.5"/>
<line x1="350.0" y1="387.5" x2="350.0" y2="400.0"/>
<line x1="337.5" y1="412.5" x2="350.0" y2="412.5"/>
<line x1="350.0" y1="400.0" x2="350.0" y2="412.5"/>
<line x1="337.5" y1="437.5" x2="350.0" y2="437.5"/>
<line x1="350.0" y1="425.0" x2="350.0" y2="437.5"/>
<line x1="350.0" y1="437.5" x2="350.0" y2="450.0"/>
<line x1="337.5" y1="462.5" x2="350.0" y2="462.5"/>
<line x1="350.0" y1="450.0" x2="350.0" y2="462.5"/>
<line x1="350.0" y1="462.5" x2="350.0" y2="475.0"/>
<line x1="337.5" y1="487.5" x2="350.0" y2="487.5"/>
<line x1="337.5" y1="500.0" x2="350.0" y2="500.0"/>
<line x1="350.0" y1="12.5" x2="362.5" y2="12.5"/>
<line x1="350.0" y1="37.5" x2="362.5" y2="37.5"/>
<line x1="350.0" y1="50.0" x2="362.5" y2="50.0"/>
<line x1="362.5" y1="50.0" x2="362.5" y2="62.5"/>
<line x1="350.0" y1="75.0" x2="362.5" y2="75.0"/>
<line x1="362.5" y1="62.5" x2="362.5" y2="75.0"/>
<line x1="362.5" y1="75.0" x2="362.5" y2="87.5"/>
<line x1="350.0" y1="100.0" x2="362.5" y2="100.0"/>
<line x1="362.5" y1="87.5" x2="362.5" y2="100.0"/>
<line x1="350.0" y1="112.5" x2="362.5" y2="112.5"/>
<line x1="362.5" y1="112.5" x2="362.5" y2="125.0"/>
<line x1="350.0" y1="137.5" x2="362.5" y2="137.5"/>
<line x1="350.0" y1="162.5" x2="362.5" y2="162.5"/>
<line x1="362.5" y1="150.0" x2="362.5" y2="162.5"/>
<line x1="350.0" y1="175.0" x2="362.5" y2="175.0"/>
<line x1="362.5" y1="175.0" x2="362.5" y2="187.5"/>
<line x1="350.0" y1="200.0" x2="362.5" y2="200.0"/>
<line x1="350.0" y1="212.5" x2="362.5" y2="212.5"/>
<line x1="362.5" y1="200.0" x2="362.5" y2="212.5"/>
<line x1="350.0" y1="225.0" x2="362.5" y2="225.0"/>
<line x1="350.0" y1="237.5" x2="362.5" y2="237.5"/>
<line x1="362.5" y1="237.5" x2="362.5" y2="250.0"/>
<line x1="350.0" y1="262.5" x2="362.5" y2="262.5"/>
<line x1="362.5" y1="250.0" x2="362.5" y2="262.5"/>
<line x1="350.0" y1="275.0" x2="362.5" y2="275.0"/>
<line x1="350.0" y1="300.0" x2="362.5" y2="300.0"/>
<line x1="362.5" y1="287.5" x2="362.5" y2="300.0"/>
<line x1="350.0" y1="312.5" x2="362.5" y2="312.5"/>
<line x1="362.5" y1="312.5" x2="362.5" y2="325.0"/>
<line x1="362.5" y1="325.0" x2="362.5" y2="337.5"/>
<line x1="362.5" y1="337.5" x2="362.5" y2="350.0"/>
<line x1="350.0" y1="362.5" x2="362.5" y2="362.5"/>
<line x1="362.5" y1="350.0" x2="362.5" y2="362.5"/>
<line x1="362.5" y1="362.5" x2="362.5" y2="375.0"/>
<line x1="350.0" y1="387.5" x2="362.5" y2="387.5"/>
<line x1="350.0" y1="412.5" x2="362.5" y2="412.5"/>
<line x1="350.0" y1="425.0" x2="362.5" y2="425.0"/>
<line x1="350.0" y1="450.0" x2="362.5" y2="450.0"/>
<line x1="362.5" y1="450.0" x2="362.5" y2="462.5"/>
<line x1="350.0" y1="487.5" x2="362.5" y2="487.5"/>
<line x1="362.5" y1="475.0" x2="362.5" y2="487.5"/>
<line x1="350.0" y1="500.0" x2="362.5" y2="500.0"/>
<line x1="362.5" y1="12.5" x2="375.0" y2="12.5"/>
<line x1="362.5" y1="25.0" x2="375.0" y2="25.0"/>
<line x1="375.0" y1="25.0" x2="375.0" y2="37.5"/>
<line x1="362.5" y1="50.0" x2="375.0" y2="50.0"/>
<line x1="375.0" y1="37.5" x2="375.0" y2="50.0"/>
<line x1="375.0" y1="62.5" x2="375.0" y2="75.0"/>
<line x1="362.5" y1="100.0" x2="375.0" y2="100.0"/>
<line x1="362.5" y1="125.0" x2="375.0" y2="125.0"/>
<line x1="375.0" y1="112.5" x2="375.0" y2="125.0"/>
<line x1="375.0" y1="125.0" x2="375.0" y2="137.5"/>
<line x1="362.5" y1="150.0" x2="375.0" y2="150.0"/>
<line x1="375.0" y1="137.5" x2="375.0" y2="150.0"/>
<line x1="375.0" y1="150.0" x2="375.0" y2="162.5"/>
<line x1="375.0" y1="162.5" x2="375.0" y2="175.0"/>
<line x1="362.5" y1="187.5" x2="375.0" y2="187.5"/>
<line x1="375.0" y1="187.5" x2="375.0" y2="200.0"/>
<line x1="362.5" y1="212.5" x2="375.0" y2="212.5"/>
<line x1="362.5" y1="225.0" x2="375.0" y2="225.0"/>
<line x1="375.0" y1="225.0" x2="375.0" y2="237.5"/>
<line x1="362.5" y1="250.0" x2="375.0" y2="250.0"/>
<line x1="375.0" y1="250.0" x2="375.0" y2="262.5"/>
<line x1="375.0" y1="262.5" x2="375.0" y2="275.0"/>
<line x1="362.5" y1="287.5" x2="375.0" y2="287.5"/>
<line x1="375.0" y1="275.0" x2="375.0" y2="287.5"/>
<line x1="362.5" y1="312.5" x2="375.0" y2="312.5"/>
<line x1="375.0" y1="325.0" x2="375.0" y2="337.5"/>
<line x1="375.0" y1="337.5" x2="375.0" y2="350.0"/>
<line x1="375.0" y1="350.0" x2="375.0" y2="362.5"/>
<line x1="362.5" y1="375.0" x2="375.0" y2="375.0"/>
<line x1="362.5" y1="387.5" x2="375.0" y2="387.5"/>
<line x1="362.5" y1="400.0" x2="375.0" y2="400.0"/>
<line x1="375.0" y1="387.5" x2="375.0" y2="400.0"/>
<line x1="362.5" y1="412.5" x2="375.0" y2="412.5"/>
<line x1="375.0" y1="412.5" x2="375.0" y2="425.0"/>
<line x1="362.5" y1="437.5" x2="375.0" y2="437.5"/>
<line x1="375.0" y1="425.0" x2="375.0" y2="437.5"/>
<line x1="375.0" y1="437.5" x2="375.0" y2="450.0"/>
<line x1="375.0" y1="450.0" x2="375.0" y2="462.5"/>
<line x1="362.5" y1="475.0" x2="375.0" y2="475.0"/>
<line x1="375.0" y1="462.5" x2="375.0" y2="475.0"/>
<line x1="362.5" y1="500.0" x2="375.0" y2="500.0"/>
<line x1="375.0" y1="487.5" x2="375.0" y2="500.0"/>
<line x1="375.0" y1="12.5" x2="387.5" y2="12.5"/>
<line x1="387.5" y1="12.5" x2="387.5" y2="25.0"/>
<line x1="387.5" y1="25.0" x2="387.5" y2="37.5"/>
<line x1="387.5" y1="37.5" x2="387.5" y2="50.0"/>
<line x1="375.0" y1="62.5" x2="387.5" y2="62.5"/>
<line x1="387.5" y1="50.0" x2="387.5" y2="62.5"/>
<line x1="375.0" y1="87.5" x2="387.5" y2="87.5"/>
<line x1="387.5" y1="75.0" x2="387.5" y2="87.5"/>
<line x1="387.5" y1="87.5" x2="387.5" y2="100.0"/>
<line x1="375.0" y1="112.5" x2="387.5" y2="112.5"/>
<line x1="387.5" y1="100.0" x2="387.5" y2="112.5"/>
<line x1="387.5" y1="137.5" x2="387.5" y2="150.0"/>
<line x1="387.5" y1="150.0" x2="387.5" y2="162.5"/>
<line x1="375.0" y1="175.0" x2="387.5" y2="175.0"/>
<line x1="375.0" y1="200.0" x2="387.5" y2="200.0"/>
<line x1="375.0" y1="212.5" x2="387.5" y2="212.5"/>
<line x1="387.5" y1="212.5" x2="387.5" y2="225.0"/>
<line x1="387.5" y1="225.0" x2="387.5" y2="237.5"/>
<line x1="387.5" y1="237.5" x2="387.5" y2="250.0"/>
<line x1="375.0" y1="262.5" x2="387.5" y2="262.5"/>
<line x1="375.0" y1="300.0" x2="387.5" y2="300.0"/>
<line x1="387.5" y1="287.5" x2="387.5" y2="300.0"/>
<line x1="387.5" y1="300.0" x2="387.5" y2="312.5"/>
<line x1="375.0" y1="325.0" x2="387.5" y2="325.0"/>
<line x1="387.5" y1="337.5" x2="387.5" y2="350.0"/>
<line x1="375.0" y1="362.5" x2="387.5" y2="362.5"/>
<line x1="375.0" y1="375.0" x2="387.5" y2="375.0"/>
<line x1="387.5" y1="362.5" x2="387.5" y2="375.0"/>
<line x1="375.0" y1="387.5" x2="387.5" y2="387.5"/>
<line x1="387.5" y1="400.0" x2="387.5" y2="412.5"/>
<line x1="387.5" y1="412.5" x2="387.5" y2="425.0"/>
<line x1="375.0" y1="437.5" x2="387.5" y2="437.5"/>
<line x1="387.5" y1="425.0" x2="387.5" y2="437.5"/>
<line x1="387.5" y1="450.0" x2="387.5" y2="462.5"/>
<line x1="387.5" y1="462.5" x2="387.5" y2="475.0"/>
<line x1="375.0" y1="487.5" x2="387.5" y2="487.5"/>
<line x1="387.5" y1="475.0" x2="387.5" y2="487.5"/>
<line x1="375.0" y1="500.0" x2="387.5" y2="500.0"/>
<line x1="387.5" y1="12.5" x2="400.0" y2="12.5"/>
<line x1="400.0" y1="12.5" x2="400.0" y2="25.0"/>
<line x1="400.0" y1="25.0" x2="400.0" y2="37.5"/>
<line x1="387.5" y1="62.5" x2="400.0" y2="62.5"/>
<line x1="400.0" y1="62.5" x2="400.0" y2="75.0"/>
<line x1="400.0" y1="75.0" x2="400.0" y2="87.5"/>
<line x1="400.0" y1="87.5" x2="400.0" y2="100.0"/>
<line x1="387.5" y1="125.0" x2="400.0" y2="125.0"/>
<line x1="400.0" y1="112.5" x2="400.0" y2="125.0"/>
<line x1="387.5" y1="137.5" x2="400.0" y2="137.5"/>
<line x1="387.5" y1="150.0" x2="400.0" y2="150.0"/>
<line x1="400.0" y1="162.5" x2="400.0" y2="175.0"/>
<line x1="387.5" y1="187.5" x2="400.0" y2="187.5"/>
<line x1="400.0" y1="175.0" x2="400.0" y2="187.5"/>
<line x1="387.5" y1="200.0" x2="400.0" y2="200.0"/>
<line x1="400.0" y1="187.5" x2="400.0" y2="200.0"/>
<line x1="400.0" y1="200.0" x2="400.0" y2="212.5"/>
<line x1="400.0" y1="212.5" x2="400.0" y2="225.0"/>
<line x1="400.0" y1="225.0" x2="400.0" y2="237.5"/>
<line x1="387.5" y1="250.0" x2="400.0" y2="250.0"/>
<line x1="387.5" y1="275.0" x2="400.0" y2="275.0"/>
<line x1="400.0" y1="262.5" x2="400.0" y2="275.0"/>
<line x1="387.5" y1="287.5" x2="400.0" y2="287.5"/>
<line x1="400.0" y1="275.0" x2="400.0" y2="287.5"/>
<line x1="387.5" y1="312.5" x2="400.0" y2="312.5"/>
<line x1="387.5" y1="325.0" x2="400.0" y2="325.0"/>
<line x1="400.0" y1="312.5" x2="400.0" y2="325.0"/>
<line x1="387.5" y1="337.5" x2="400.0" y2="337.5"/>
<line x1="387.5" y1="350.0" x2="400.0" y2="350.0"/>
<line x1="387.5" y1="362.5" x2="400.0" y2="362.5"/>
<line x1="387.5" y1="387.5" x2="400.0" y2="387.5"/>
<line x1="400.0" y1="375.0" x2="400.0" y2="387.5"/>
<line x1="400.0" y1="387.5" x2="400.0" y2="400.0"/>
<line x1="387.5" y1="412.5" x2="400.0" y2="412.5"/>
<line x1="387.5" y1="437.5" x2="400.0" y2="437.5"/>
<line x1="400.0" y1="437.5" x2="400.0" y2="450.0"/>
<line x1="387.5" y1="462.5" x2="400.0" y2="462.5"/>
<line x1="400.0" y1="475.0" x2="400.0" y2="487.5"/>
<line x1="387.5" y1="500.0" x2="400.0" y2="500.0"/>
<line x1="400.0" y1="487.5" x2="400.0" y2="500.0"/>
<line x1="412.5" y1="0.0" x2="412.5" y2="12.5"/>
<line x1="412.5" y1="12.5" x2="412.5" y2="25.0"/>
<line x1="412.5" y1="25.0" x2="412.5" y2="37.5"/>
<line x1="400.0" y1="50.0" x2="412.5" y2="50.0"/>
<line x1="412.5" y1="37.5" x2="412.5" y2="50.0"/>
<line x1="412.5" y1="50.0" x2="412.5" y2="62.5"/>
<line x1="400.0" y1="75.0" x2="412.5" y2="75.0"/>
<line x1="400.0" y1="100.0" x2="412.5" y2="100.0"/>
<line x1="400.0" y1="112.5" x2="412.5" y2="112.5"/>
<line x1="412.5" y1="100.0" x2="412.5" y2="112.5"/>
<line x1="400.0" y1="137.5" x2="412.5" y2="137.5"/>
<line x1="412.5" y1="125.0" x2="412.5" y2="137.5"/>
<line x1="400.0" y1="150.0" x2="412.5" y2="150.0"/>
<line x1="400.0" y1="175.0" x2="412.5" y2="175.0"/>
<line x1="412.5" y1="162.5" x2="412.5" y2="175.0"/>
<line x1="400.0" y1="212.5" x2="412.5" y2="212.5"/>
<line x1="412.5" y1="200.0" x2="412.5" y2="212.5"/>
<line x1="412.5" y1="225.0" x2="412.5" y2="237.5"/>
<line x1="400.0" y1="250.0" x2="412.5" y2="250.0"/>
<line x1="412.5" y1="237.5" x2="412.5" y2="250.0"/>
<line x1="400.0" y1="262.5" x2="412.5" y2="262.5"/>
<line x1="412.5" y1="250.0" x2="412.5" y2="262.5"/>
<line x1="412.5" y1="275.0" x2="412.5" y2="287.5"/>
<line x1="400.0" y1="300.0" x2="412.5" y2="300.0"/>
<line x1="412.5" y1="287.5" x2="412.5" y2="300.0"/>
<line x1="412.5" y1="300.0" x2="412.5" y2="312.5"/>
<line x1="400.0" y1="325.0" x2="412.5" y2="325.0"/>
<line x1="400.0" y1="337.5" x2="412.5" y2="337.5"/>
<line x1="400.0" y1="350.0" x2="412.5" y2="350.0"/>
<line x1="400.0" y1="362.5" x2="412.5" y2="362.5"/>
<line x1="400.0" y1="375.0" x2="412.5" y2="375.0"/>
<line x1="400.0" y1="400.0" x2="412.5" y2="400.0"/>
<line x1="400.0" y1="412.5" x2="412.5" y2="412.5"/>
<line x1="400.0" y1="425.0" x2="412.5" y2="425.0"/>
<line x1="400.0" y1="450.0" x2="412.5" y2="450.0"/>
<line x1="412.5" y1="437.5" x2="412.5" y2="450.0"/>
<line x1="400.0" y1="462.5" x2="412.5" y2="462.5"/>
<line x1="412.5" y1="475.0" x2="412.5" y2="487.5"/>
<line x1="400.0" y1="500.0" x2="412.5" y2="500.0"/>
<line x1="425.0" y1="12.5" x2="425.0" y2="25.0"/>
<line x1="412.5" y1="50.0" x2="425.0" y2="50.0"/>
<line x1="412.5" y1="75.0" x2="425.0" y2="75.0"/>
<line x1="425.0" y1="62.5" x2="425.0" y2="75.0"/>
<line x1="412.5" y1="87.5" x2="425.0" y2="87.5"/>
<line x1="425.0" y1="87.5" x2="425.0" y2="100.0"/>
<line x1="425.0" y1="100.0" x2="425.0" y2="112.5"/>
<line x1="412.5" y1="125.0" x2="425.0" y2="125.0"/>
<line x1="425.0" y1="112.5" x2="425.0" y2="125.0"/>
<line x1="412.5" y1="137.5" x2="425.0" y2="137.5"/>
<line x1="412.5" y1="162.5" x2="425.0" y2="162.5"/>
<line x1="425.0" y1="150.0" x2="425.0" y2="162.5"/>
<line x1="412.5" y1="187.5" x2="425.0" y2="187.5"/>
<line x1="425.0" y1="175.0" x2="425.0" y2="187.5"/>
<line x1="425.0" y1="187.5" x2="425.0" y2="200.0"/>
<line x1="412.5" y1="212.5" x2="425.0" y2="212.5"/>
<line x1="412.5" y1="225.0" x2="425.0" y2="225.0"/>
<line x1="425.0" y1="237.5" x2="425.0" y2="250.0"/>
<line x1="412.5" y1="275.0" x2="425.0" y2="275.0"/>
<line x1="425.0" y1="262.5" x2="425.0" y2="275.0"/>
<line x1="412.5" y1="287.5" x2="425.0" y2="287.5"/>
<line x1="425.0" y1="300.0" x2="425.0" y2="312.5"/>
<line x1="425.0" y1="312.5" x2="425.0" y2="325.0"/>
<line x1="412.5" y1="337.5" x2="425.0" y2="337.5"/>
<line x1="425.0" y1="325.0" x2="425.0" y2="337.5"/>
<line x1="425.0" y1="337.5" x2="425.0" y2="350.0"/>
<line x1="412.5" y1="362.5" x2="425.0" y2="362.5"/>
<line x1="425.0" y1="362.5" x2="425.0" y2="375.0"/>
<line x1="412.5" y1="387.5" x2="425.0" y2="387.5"/>
<line x1="425.0" y1="375.0" x2="425.0" y2="387.5"/>
<line x1="412.5" y1="400.0" x2="425.0" y2="400.0"/>
<line x1="412.5" y1="412.5" x2="425.0" y2="412.5"/>
<line x1="412.5" y1="425.0" x2="425.0" y2="425.0"/>
<line x1="425.0" y1="425.0" x2="425.0" y2="437.5"/>
<line x1="425.0" y1="437.5" x2="425.0" y2="450.0"/>
<line x1="412.5" y1="462.5" x2="425.0" y2="462.5"/>
<line x1="425.0" y1="450.0" x2="425.0" y2="462.5"/>
<line x1="412.5" y1="475.0" x2="425.0" y2="475.0"/>
<line x1="425.0" y1="462.5" x2="425.0" y2="475.0"/>
<line x1="412.5" y1="500.0" x2="425.0" y2="500.0"/>
<line x1="425.0" y1="12.5" x2="437.5" y2="12.5"/>
<line x1="425.0" y1="37.5" x2="437.5" y2="37.5"/>
<line x1="437.5" y1="25.0" x2="437.5" y2="37.5"/>
<line x1="425.0" y1="50.0" x2="437.5" y2="50.0"/>
<line x1="437.5" y1="50.0" x2="437.5" y2="62.5"/>
<line x1="425.0" y1="75.0" x2="437.5" y2="75.0"/>
<line x1="425.0" y1="87.5" x2="437.5" y2="87.5"/>
<line x1="437.5" y1="100.0" x2="437.5" y2="112.5"/>
<line x1="425.0" y1="125.0" x2="437.5" y2="125.0"/>
<line x1="425.0" y1="150.0" x2="437.5" y2="150.0"/>
<line x1="437.5" y1="137.5" x2="437.5" y2="150.0"/>
<line x1="425.0" y1="175.0" x2="437.5" y2="175.0"/>
<line x1="437.5" y1="162.5" x2="437.5" y2="175.0"/>
<line x1="437.5" y1="175.0" x2="437.5" y2="187.5"/>
<line x1="425.0" y1="200.0" x2="437.5" y2="200.0"/>
<line x1="437.5" y1="200.0" x2="437.5" y2="212.5"/>
<line x1="425.0" y1="225.0" x2="437.5" y2="225.0"/>
<line x1="437.5" y1="212.5" x2="437.5" y2="225.0"/>
<line x1="425.0" y1="237.5" x2="437.5" y2="237.5"/>
<line x1="437.5" y1="225.0" x2="437.5" y2="237.5"/>
<line x1="425.0" y1="262.5" x2="437.5" y2="262.5"/>
<line x1="437.5" y1="250.0" x2="437.5" y2="262.5"/>
<line x1="437.5" y1="262.5" x2="437.5" y2="275.0"/>
<line x1="437.5" y1="275.0" x2="437.5" y2="287.5"/>
<line x1="425.0" y1="300.0" x2="437.5" y2="300.0"/>
<line x1="437.5" y1="287.5" x2="437.5" y2="300.0"/>
<line x1="437.5" y1="312.5" x2="437.5" y2="325.0"/>
<line x1="437.5" y1="325.0" x2="437.5" y2="337.5"/>
<line x1="425.0" y1="350.0" x2="437.5" y2="350.0"/>
<line x1="437.5" y1="350.0" x2="437.5" y2="362.5"/>
<line x1="437.5" y1="362.5" x2="437.5" y2="375.0"/>
<line x1="425.0" y1="387.5" x2="437.5" y2="387.5"/>
<line x1="425.0" y1="400.0" x2="437.5" y2="400.0"/>
<line x1="425.0" y1="412.5" x2="437.5" y2="412.5"/>
<line x1="425.0" y1="425.0" x2="437.5" y2="425.0"/>
<line x1="437.5" y1="437.5" x2="437.5" y2="450.0"/>
<line x1="437.5" y1="450.0" x2="437.5" y2="462.5"/>
<line x1="437.5" y1="462.5" x2="437.5" y2="475.0"/>
<line x1="425.0" y1="487.5" x2="437.5" y2="487.5"/>
<line x1="437.5" y1="475.0" x2="437.5" y2="487.5"/>
<line x1="425.0" y1="500.0" x2="437.5" y2="500.0"/>
<line x1="437.5" y1="12.5" x2="450.0" y2="12.5"/>
<line x1="450.0" y1="12.5" x2="450.0" y2="25.0"/>
<line x1="437.5" y1="37.5" x2="450.0" y2="37.5"/>
<line x1="437.5" y1="50.0" x2="450.0" y2="50.0"/>
<line x1="450.0" y1="37.5" x2="450.0" y2="50.0"/>
<line x1="437.5" y1="75.0" x2="450.0" y2="75.0"/>
<line x1="450.0" y1="62.5" x2="450.0" y2="75.0"/>
<line x1="437.5" y1="87.5" x2="450.0" y2="87.5"/>
<line x1="437.5" y1="100.0" x2="450.0" y2="100.0"/>
<line x1="437.5" y1="112.5" x2="450.0" y2="112.5"/>
<line x1="437.5" y1="125.0" x2="450.0" y2="125.0"/>
<line x1="437.5" y1="137.5" x2="450.0" y2="137.5"/>
<line x1="437.5" y1="150.0" x2="450.0" y2="150.0"/>
<line x1="450.0" y1="150.0" x2="450.0" y2="162.5"/>
<line x1="450.0" y1="162.5" x2="450.0" y2="175.0"/>
<line x1="450.0" y1="175.0" x2="450.0" y2="187.5"/>
<line x1="450.0" y1="187.5" x2="450.0" y2="200.0"/>
<line x1="450.0" y1="200.0" x2="450.0" y2="212.5"/>
<line x1="437.5" y1="225.0" x2="450.0" y2="225.0"/>
<line x1="437.5" y1="250.0" x2="450.0" y2="250.0"/>
<line x1="450.0" y1="237.5" x2="450.0" y2="250.0"/>
<line x1="450.0" y1="262.5" x2="450.0" y2="275.0"/>
<line x1="450.0" y1="275.0" x2="450.0" y2="287.5"/>
<line x1="437.5" y1="300.0" x2="450.0" y2="300.0"/>
<line x1="450.0" y1="300.0" x2="450.0" y2="312.5"/>
<line x1="437.5" y1="325.0" x2="450.0" y2="325.0"/>
<line x1="437.5" y1="350.0" x2="450.0" y2="350.0"/>
<line x1="450.0" y1="337.5" x2="450.0" y2="350.0"/>
<line x1="450.0" y1="350.0" x2="450.0" y2="362.5"/>
<line x1="437.5" y1="375.0" x2="450.0" y2="375.0"/>
<line x1="450.0" y1="375.0" x2="450.0" y2="387.5"/>
<line x1="437.5" y1="400.0" x2="450.0" y2="400.0"/>
<line x1="450.0" y1="387.5" x2="450.0" y2="400.0"/>
<line x1="437.5" y1="412.5" x2="450.0" y2="412.5"/>
<line x1="437.5" y1="425.0" x2="450.0" y2="425.0"/>
<line x1="450.0" y1="437.5" x2="450.0" y2="450.0"/>
<line x1="450.0" y1="450.0" x2="450.0" y2="462.5"/>
<line x1="437.5" y1="475.0" x2="450.0" y2="475.0"/>
<line x1="437.5" y1="487.5" x2="450.0" y2="487.5"/>
<line x1="437.5" y1="500.0" x2="450.0" y2="500.0"/>
<line x1="450.0" y1="12.5" x2="462.5" y2="12.5"/>
<line x1="450.0" y1="37.5" x2="462.5" y2="37.5"/>
<line x1="450.0" y1="62.5" x2="462.5" y2="62.5"/>
<line x1="462.5" y1="50.0" x2="462.5" y2="62.5"/>
<line x1="450.0" y1="87.5" x2="462.5" y2="87.5"/>
<line x1="462.5" y1="75.0" x2="462.5" y2="87.5"/>
<line x1="450.0" y1="100.0" x2="462.5" y2="100.0"/>
<line x1="450.0" y1="112.5" x2="462.5" y2="112.5"/>
<line x1="462.5" y1="112.5" x2="462.5" y2="125.0"/>
<line x1="450.0" y1="137.5" x2="462.5" y2="137.5"/>
<line x1="462.5" y1="125.0" x2="462.5" y2="137.5"/>
<line x1="450.0" y1="162.5" x2="462.5" y2="162.5"/>
<line x1="450.0" y1="175.0" x2="462.5" y2="175.0"/>
<line x1="462.5" y1="187.5" x2="462.5" y2="200.0"/>
<line x1="450.0" y1="212.5" x2="462.5" y2="212.5"/>
<line x1="450.0" y1="225.0" x2="462.5" y2="225.0"/>
<line x1="462.5" y1="237.5" x2="462.5" y2="250.0"/>
<line x1="462.5" y1="250.0" x2="462.5" y2="262.5"/>
<line x1="462.5" y1="262.5" x2="462.5" y2="275.0"/>
<line x1="450.0" y1="287.5" x2="462.5" y2="287.5"/>
<line x1="462.5" y1="275.0" x2="462.5" y2="287.5"/>
<line x1="462.5" y1="287.5" x2="462.5" y2="300.0"/>
<line x1="462.5" y1="300.0" x2="462.5" y2="312.5"/>
<line x1="450.0" y1="325.0" x2="462.5" y2="325.0"/>
<line x1="462.5" y1="312.5" x2="462.5" y2="325.0"/>
<line x1="450.0" y1="337.5" x2="462.5" y2="337.5"/>
<line x1="450.0" y1="375.0" x2="462.5" y2="375.0"/>
<line x1="462.5" y1="362.5" x2="462.5" y2="375.0"/>
<line x1="462.5" y1="387.5" x2="462.5" y2="400.0"/>
<line x1="462.5" y1="400.0" x2="462.5" y2="412.5"/>
<line x1="450.0" y1="425.0" x2="462.5" y2="425.0"/>
<line x1="462.5" y1="412.5" x2="462.5" y2="425.0"/>
<line x1="450.0" y1="450.0" x2="462.5" y2="450.0"/>
<line x1="462.5" y1="437.5" x2="462.5" y2="450.0"/>
<line x1="450.0" y1="475.0" x2="462.5" y2="475.0"/>
<line x1="462.5" y1="462.5" x2="462.5" y2="475.0"/>
<line x1="450.0" y1="500.0" x2="462.5" y2="500.0"/>
<line x1="462.5" y1="487.5" x2="462.5" y2="500.0"/>
<line x1="462.5" y1="12.5" x2="475.0" y2="12.5"/>
<line x1="462.5" y1="25.0" x2="475.0" y2="25.0"/>
<line x1="462.5" y1="37.5" x2="475.0" y2="37.5"/>
<line x1="475.0" y1="25.0" x2="475.0" y2="37.5"/>
<line x1="462.5" y1="50.0" x2="475.0" y2="50.0"/>
<line x1="462.5" y1="62.5" x2="475.0" y2="62.5"/>
<line x1="475.0" y1="62.5" x2="475.0" y2="75.0"/>
<line x1="462.5" y1="87.5" x2="475.0" y2="87.5"/>
<line x1="475.0" y1="87.5" x2="475.0" y2="100.0"/>
<line x1="475.0" y1="100.0" x2="475.0" y2="112.5"/>
<line x1="462.5" y1="125.0" x2="475.0" y2="125.0"/>
<line x1="475.0" y1="125.0" x2="475.0" y2="137.5"/>
<line x1="462.5" y1="150.0" x2="475.0" y2="150.0"/>
<line x1="462.5" y1="162.5" x2="475.0" y2="162.5"/>
<line x1="475.0" y1="162.5" x2="475.0" y2="175.0"/>
<line x1="462.5" y1="187.5" x2="475.0" y2="187.5"/>
<line x1="475.0" y1="175.0" x2="475.0" y2="187.5"/>
<line x1="462.5" y1="212.5" x2="475.0" y2="212.5"/>
<line x1="462.5" y1="225.0" x2="475.0" y2="225.0"/>
<line x1="462.5" y1="237.5" x2="475.0" y2="237.5"/>
<line x1="475.0" y1="250.0" x2="475.0" y2="262.5"/>
<line x1="475.0" y1="262.5" x2="475.0" y2="275.0"/>
<line x1="475.0" y1="275.0" x2="475.0" y2="287.5"/>
<line x1="475.0" y1="287.5" x2="475.0" y2="300.0"/>
<line x1="462.5" y1="312.5" x2="475.0" y2="312.5"/>
<line x1="462.5" y1="337.5" x2="475.0" y2="337.5"/>
<line x1="475.0" y1="325.0" x2="475.0" y2="337.5"/>
<line x1="462.5" y1="350.0" x2="475.0" y2="350.0"/>
<line x1="462.5" y1="362.5" x2="475.0" y2="362.5"/>
<line x1="475.0" y1="350.0" x2="475.0" y2="362.5"/>
<line x1="462.5" y1="387.5" x2="475.0" y2="387.5"/>
<line x1="475.0" y1="375.0" x2="475.0" y2="387.5"/>
<line x1="475.0" y1="387.5" x2="475.0" y2="400.0"/>
<line x1="475.0" y1="400.0" x2="475.0" y2="412.5"/>
<line x1="475.0" y1="412.5" x2="475.0" y2="425.0"/>
<line x1="462.5" y1="437.5" x2="475.0" y2="437.5"/>
<line x1="475.0" y1="425.0" x2="475.0" y2="437.5"/>
<line x1="462.5" y1="462.5" x2="475.0" y2="462.5"/>
<line x1="475.0" y1="450.0" x2="475.0" y2="462.5"/>
<line x1="462.5" y1="475.0" x2="475.0" y2="475.0"/>
<line x1="475.0" y1="475.0" x2="475.0" y2="487.5"/>
<line x1="462.5" y1="500.0" x2="475.0" y2="500.0"/>
<line x1="475.0" y1="12.5" x2="487.5" y2="12.5"/>
<line x1="487.5" y1="12.5" x2="487.5" y2="25.0"/>
<line x1="475.0" y1="37.5" x2="487.5" y2="37.5"/>
<line x1="487.5" y1="37.5" x2="487.5" y2="50.0"/>
<line x1="487.5" y1="50.0" x2="487.5" y2="62.5"/>
<line x1="475.0" y1="75.0" x2="487.5" y2="75.0"/>
<line x1="475.0" y1="87.5" x2="487.5" y2="87.5"/>
<line x1="487.5" y1="87.5" x2="487.5" y2="100.0"/>
<line x1="487.5" y1="100.0" x2="487.5" y2="112.5"/>
<line x1="487.5" y1="112.5" x2="487.5" y2="125.0"/>
<line x1="487.5" y1="125.0" x2="487.5" y2="137.5"/>
<line x1="475.0" y1="150.0" x2="487.5" y2="150.0"/>
<line x1="487.5" y1="137.5" x2="487.5" y2="150.0"/>
<line x1="487.5" y1="150.0" x2="487.5" y2="162.5"/>
<line x1="487.5" y1="162.5" x2="487.5" y2="175.0"/>
<line x1="487.5" y1="175.0" x2="487.5" y2="187.5"/>
<line x1="475.0" y1="200.0" x2="487.5" y2="200.0"/>
<line x1="487.5" y1="187.5" x2="487.5" y2="200.0"/>
<line x1="475.0" y1="212.5" x2="487.5" y2="212.5"/>
<line x1="487.5" y1="200.0" x2="487.5" y2="212.5"/>
<line x1="475.0" y1="225.0" x2="487.5" y2="225.0"/>
<line x1="475.0" y1="237.5" x2="487.5" y2="237.5"/>
<line x1="487.5" y1="225.0" x2="487.5" y2="237.5"/>
<line x1="475.0" y1="250.0" x2="487.5" y2="250.0"/>
<line x1="487.5" y1="262.5" x2="487.5" y2="275.0"/>
<line x1="475.0" y1="287.5" x2="487.5" y2="287.5"/>
<line x1="487.5" y1="275.0" x2="487.5" y2="287.5"/>
<line x1="475.0" y1="312.5" x2="487.5" y2="312.5"/>
<line x1="487.5" y1="300.0" x2="487.5" y2="312.5"/>
<line x1="487.5" y1="312.5" x2="487.5" y2="325.0"/>
<line x1="475.0" y1="337.5" x2="487.5" y2="337.5"/>
<line x1="475.0" y1="362.5" x2="487.5" y2="362.5"/>
<line x1="487.5" y1="362.5" x2="487.5" y2="375.0"/>
<line x1="487.5" y1="375.0" x2="487.5" y2="387.5"/>
<line x1="487.5" y1="387.5" x2="487.5" y2="400.0"/>
<line x1="487.5" y1="400.0" x2="487.5" y2="412.5"/>
<line x1="475.0" y1="425.0" x2="487.5" y2="425.0"/>
<line x1="475.0" y1="450.0" x2="487.5" y2="450.0"/>
<line x1="487.5" y1="437.5" x2="487.5" y2="450.0"/>
<line x1="475.0" y1="475.0" x2="487.5" y2="475.0"/>
<line x1="487.5" y1="462.5" x2="487.5" y2="475.0"/>
<line x1="475.0" y1="500.0" x2="487.5" y2="500.0"/>
<line x1="487.5" y1="487.5" x2="487.5" y2="500.0"/>
<line x1="500.0" y1="0.0" x2="500.0" y2="12.5"/>
<line x1="487.5" y1="25.0" x2="500.0" y2="25.0"/>
<line x1="500.0" y1="12.5" x2="500.0" y2="25.0"/>
<line x1="500.0" y1="25.0" x2="500.0" y2="37.5"/>
<line x1="500.0" y1="37.5" x2="500.0" y2="50.0"/>
<line x1="500.0" y1="50.0" x2="500.0" y2="62.5"/>
<line x1="487.5" y1="75.0" x2="500.0" y2="75.0"/>
<line x1="500.0" y1="62.5" x2="500.0" y2="75.0"/>
<line x1="500.0" y1="75.0" x2="500.0" y2="87.5"/>
<line x1="500.0" y1="87.5" x2="500.0" y2="100.0"/>
<line x1="500.0" y1="100.0" x2="500.0" y2="112.5"/>
<line x1="500.0" y1="112.5" x2="500.0" y2="125.0"/>
<line x1="500.0" y1="125.0" x2="500.0" y2="137.5"/>
<line x1="500.0" y1="137.5" x2="500.0" y2="150.0"/>
<line x1="500.0" y1="150.0" x2="500.0" y2="162.5"/>
<line x1="500.0" y1="162.5" x2="500.0" y2="175.0"/>
<line x1="500.0" y1="175.0" x2="500.0" y2="187.5"/>
<line x1="500.0" y1="187.5" x2="500.0" y2="200.0"/>
<line x1="500.0" y1="200.0" x2="500.0" y2="212.5"/>
<line x1="500.0" y1="212.5" x2="500.0" y2="225.0"/>
<line x1="500.0" y1="225.0" x2="500.0" y2="237.5"/>
<line x1="487.5" y1="250.0" x2="500.0" y2="250.0"/>
<line x1="500.0" y1="237.5" x2="500.0" y2="250.0"/>
<line x1="500.0" y1="250.0" x2="500.0" y2="262.5"/>
<line x1="500.0" y1="262.5" x2="500.0" y2="275.0"/>
<line x1="500.0" y1="275.0" x2="500.0" y2="287.5"/>
<line x1="500.0" y1="287.5" x2="500.0" y2="300.0"/>
<line x1="500.0" y1="300.0" x2="500.0" y2="312.5"/>
<line x1="500.0" y1="312.5" x2="500.0" y2="325.0"/>
<line x1="487.5" y1="337.5" x2="500.0" y2="337.5"/>
<line x1="500.0" y1="325.0" x2="500.0" y2="337.5"/>
<line x1="487.5" y1="350.0" x2="500.0" y2="350.0"/>
<line x1="500.0" y1="337.5" x2="500.0" y2="350.0"/>
<line x1="500.0" y1="350.0" x2="500.0" y2="362.5"/>
<line x1="500.0" y1="362.5" x2="500.0" y2="375.0"/>
<line x1="500.0" y1="375.0" x2="500.0" y2="387.5"/>
<line x1="500.0" y1="387.5" x2="500.0" y2="400.0"/>
<line x1="500.0" y1="400.0" x2="500.0" y2="412.5"/>
<line x1="500.0" y1="412.5" x2="500.0" y2="425.0"/>
<line x1="487.5" y1="437.5" x2="500.0" y2="437.5"/>
<line x1="500.0" y1="425.0" x2="500.0" y2="437.5"/>
<line x1="500.0" y1="437.5" x2="500.0" y2="450.0"/>
<line x1="500.0" y1="450.0" x2="500.0" y2="462.5"/>
<line x1="500.0" y1="462.5" x2="500.0" y2="475.0"/>
<line x1="500.0" y1="475.0" x2="500.0" y2="487.5"/>
<line x1="487.5" y1="500.0" x2="500.0" y2="500.0"/>
<line x1="500.0" y1="487.5" x2="500.0" y2="500.0"/>
<line x1="0" y1="0" x2="500" y2="0"/>
<line x1="0" y1="0" x2="0" y2="500"/>
</svg>
